<?xml version="1.0" encoding="UTF-8"?> <svg xmlns="http://www.w3.org/2000/svg" id="Layer_1" data-name="Layer 1" viewBox="0 0 423.29 167.59"><defs><style>.cls-1{fill:#c29820;}.cls-2{fill:#fff;}</style></defs><path class="cls-1" d="M50.65,80.91A7.74,7.74,0,0,0,49.3,83,2.27,2.27,0,0,0,50.65,80.91Z"></path><path class="cls-1" d="M52.64,78.42c-.11-.08-.33-.17-.44-.08a.94.94,0,0,0-.4,1A1.46,1.46,0,0,0,52.64,78.42Z"></path><path class="cls-1" d="M44.56,91.91c-.1,0-.11-.09-.21-.08a1.11,1.11,0,0,0-.21.54C44.68,92.45,44.57,92.18,44.56,91.91Z"></path><path class="cls-1" d="M41.25,97.42c.11,0,.11,0,.22.08.1-.27.64-.28.19-.82A5.38,5.38,0,0,0,41.25,97.42Z"></path><path class="cls-1" d="M55.64,73.56l.94-1.11a.63.63,0,0,1,.1-.36,1.12,1.12,0,0,0-.43-.08,2.35,2.35,0,0,0-.42.64c-.1.09-.1.27-.2.37-.31.55-.84,1.1-1.14,1.74a.8.8,0,0,1,.11.27c.11-.09.32-.1.32-.19.21-.27.63-.55.51-1C55.32,73.75,55.64,73.65,55.64,73.56Z"></path><path class="cls-1" d="M57.81,69.89l-.21.1a5.16,5.16,0,0,1-.41.82c.54-.1.85-.29.84-.65C58,70.07,57.92,70,57.81,69.89Z"></path><path class="cls-1" d="M43.42,93.75c.53-.38.95-.75.72-1.38C43.51,92.84,43.2,93.48,43.42,93.75Z"></path><path class="cls-1" d="M38.7,107.7l.1.09.63-.92c-.11,0-.11-.09-.22-.09A2.84,2.84,0,0,1,38.7,107.7Z"></path><path class="cls-1" d="M42.91,99.55c.11,0,.11.09.22.09A9.84,9.84,0,0,1,44,98.08h-.22A9.1,9.1,0,0,1,42.91,99.55Z"></path><path class="cls-1" d="M69.77,98.29a4.77,4.77,0,0,0,1.78-1.94,29.09,29.09,0,0,0,2.39-3.77,18.92,18.92,0,0,0,1.33-3,12.67,12.67,0,0,0,1.1-3.37,14.74,14.74,0,0,0,.68-3c.1-.46-.12-.9,0-1.45L77.3,80a3.29,3.29,0,0,0,.4-1.37,5.35,5.35,0,0,0-.48-2.25,15.22,15.22,0,0,0-1.78-2.58,4.88,4.88,0,0,1-.91-2.15,8.52,8.52,0,0,0-.79-1.34c-.44-.35-1-.52-1.1-1-.34-.62-1.2-1-1.33-1.69a.43.43,0,0,0-.21-.08c-.77-.53-1.32-1.06-2.08-1.49-1.09-.52-2.18-1-3.26-1.46l-4.55-1.25a11.37,11.37,0,0,0-1.83-.14c-.43-.08-.75,0-1.19-.06-1.29-.06-2.37-.22-3.66-.28a1.46,1.46,0,0,1-.43-.17l-.65-.26c-1,0-2.16.05-3.23.17a4.93,4.93,0,0,0-2.78.52h-.22a13.83,13.83,0,0,0-1.93,0c-2.14.41-4.39.73-6.64,1.24s-4.82,1.11-7.06,1.79a33.91,33.91,0,0,0-3.31.9,4.74,4.74,0,0,0-1.18.29l-4.47,1.74c-1.71.58-3.52,1.53-5.22,2.29a1.76,1.76,0,0,0-.64.2,15.4,15.4,0,0,0-2.13,1c-1.27.85-2.43,1.69-3.59,2.62a21.74,21.74,0,0,0-4.44,3.45c-.73.83-1.68,1.58-2.42,2.5S3.27,83,2.64,83.85c-.31.55-.51,1.1-.82,1.56a2.64,2.64,0,0,0-.93,1.83,1.64,1.64,0,0,1-.51.92c-.11.09-.1.27-.21.45,0,.54-.08,1.18-.06,1.81A7.26,7.26,0,0,0,0,92c.12.72.14,1.45.26,2.17.12.54.46,1.16.58,1.7a3.4,3.4,0,0,1-.07,1.45,4.19,4.19,0,0,0-.59,2.46c0,.36.13.81.14,1.17.11.18.11.45.23.63a12.19,12.19,0,0,0,2.12,3.3A7.55,7.55,0,0,0,4,106a19.28,19.28,0,0,0,2.4,1.48,2.06,2.06,0,0,0,1,.34,7.08,7.08,0,0,0,1.82-.31c.54-.11.85-.47.84-.84s-.44-.53-1-.61c-.11,0-.21.1-.32,0a.68.68,0,0,1-.23-.45c-.11-.17,0-.45-.12-.63A7.13,7.13,0,0,1,7,103.38v-.09a5.71,5.71,0,0,1-.67-1.07c-.33-.45-.45-.89-.78-1.43,0-.18.09-.45,0-.63C5,99,4.48,97.92,4.13,96.84a1.7,1.7,0,0,1,0-2,8.24,8.24,0,0,1,1-1.92,18.18,18.18,0,0,1,1.45-2.3c.51-.91,1.36-1.66,1.87-2.57a3.31,3.31,0,0,1,1.27-1,1.87,1.87,0,0,0,.84-.65,2.61,2.61,0,0,1,.74-.74c.73-.83,1.58-1.58,2.31-2.41.63-.47,1.05-1.11,1.58-1.48a22.25,22.25,0,0,1,2.32-1.69c1.28-.84,2.44-1.68,3.6-2.52a.49.49,0,0,0,.32-.1,8,8,0,0,0,.85-.38c.75-.38,1.38-.76,2-1,1.39-.57,2.77-1.06,4.27-1.63.53-.2,1.05-.75,1.7-.59h.11c1.28-.48,2.67-1,3.84-1.36,1.39-.39,2.89-.79,4.28-1.09s2.67-.61,4.06-.91c1-.11,1.93-.5,3-.61s2-.32,3.11-.44a11.4,11.4,0,0,0,1.72-.22,15.08,15.08,0,0,1,3.54-.35c.53,0,1-.12,1.5-.13,1.08.07,2.14-.23,3.12.29H59c.11,0,.22.08.12.27-.62,1.1-1.35,2.29-2.07,3.39a3.48,3.48,0,0,0-.42.65c-.63.73-1,1.56-1.66,2.39a28.16,28.16,0,0,1-1.86,3.21l-.1.36c-.52.74-1,1.47-1.57,2.12-.73.92-.81,2.1-1.65,2.93-.11,0-.21.19-.31.28l-.31.91a23.16,23.16,0,0,0-2.38,4,3.08,3.08,0,0,1-.4,1,20.29,20.29,0,0,0-1.25,1.93c-.72,1.2-1.34,2.39-2,3.67-.31.46-.4,1-.71,1.46-.42.73-.83,1.47-1.35,2.2a23.51,23.51,0,0,1-1.24,2.38,9,9,0,0,1-.71,1.47c-.21.37-.42.64-.75.47a.82.82,0,0,0-.64.1.67.67,0,0,1-.43-.08c-.11-.08,0-.27,0-.36.21-.18.31-.37.53-.46,0-.09.1-.1.21-.1a.64.64,0,0,0,.22.36c.32-.37.74-.74.52-1-.34-.53.09-.63.41-.82l.31-.28v-.09h-.64a1.54,1.54,0,0,1,.19-1c0-.09.21-.18.32-.18a.21.21,0,0,1,.22.17c.11.09.11.18.11.36.21-.37.63-.65.2-.91s-.44-.35-.24-.72a16.44,16.44,0,0,0,1.26-1.65c.3-.65.29-1.28.81-1.83.11,0,.11-.19.11-.19.72-1.46,1.22-2.92,1.94-4.29.51-1.19,1.13-2.2,1.64-3.3a3,3,0,0,0,.31-.64,24.84,24.84,0,0,0,1.75-3.39c.52-.82.6-1.82,1.34-2.65v-.18c.1-.37.09-.73.19-1.09a3.06,3.06,0,0,0,.17-2.18,2.74,2.74,0,0,0-2-1.4c-.76-.16-1.62-.23-2.49-.48-.54-.08-1.08-.34-1.73-.42a1.84,1.84,0,0,0-1-.06,4.26,4.26,0,0,0-.84.92.94.94,0,0,0-.2.55c-.1.27-.09.63-.19.91l-1.33,3.1C39,82,38.34,83.19,37.93,84.38c-.3.64-.72,1.19-1,1.83a6.45,6.45,0,0,1-.4,1.37.6.6,0,0,0-.2.37,1.72,1.72,0,0,0-.42.55,2,2,0,0,0-.2.73c-.21.18-.21.36-.31.64s-.31.46-.2.63c.12.36-.09.55-.3.83a22.58,22.58,0,0,0-1.35,2.11c-.1.09-.1.18-.21.18a3.73,3.73,0,0,1-.19,1.09c-.3.74-.83,1.38-1,2-.21.28-.09.63-.3.91a20.71,20.71,0,0,1-1.13,2.11,3.82,3.82,0,0,0-.69,2.64l-.11.09-1.24,1.93c-.42.82-.93,1.65-1.34,2.47a4.61,4.61,0,0,1-.83,1.56c-.1.36-.42.28-.75.2s-.32-.26-.54-.35c-.54-.08-.55-.35-.45-.62.11-.1.11-.1.11-.19a2.77,2.77,0,0,0-.76-.07,1.13,1.13,0,0,0,.31-.73,1.23,1.23,0,0,0,.2-.55,6.75,6.75,0,0,0-1.39.22A1.82,1.82,0,0,0,22,108.09a1.3,1.3,0,0,1,0,.91c-.42.46-.2.81.13,1.08l.76.52c.45.54,2.71.93,3.16,1.47a.88.88,0,0,1-.09.72c0,.18-.1.28-.1.46a.37.37,0,0,0-.54.1c.12.54-.19.91-.18,1.18-.21.37-.31.73-.52,1.1-.1,0-.21,0-.21-.09-.53.47-.3.91-.4,1.46l-.3.73c-.62,1.1-1.25,2-1.76,3-.4,1.18-4.19,9.32-4.81,10.42a1.16,1.16,0,0,0-.2.55c-.5,1.64-1.66,2.93-2.48,4.4-.31.64-.41.92.14,1.35.11.09.11.27.12.45-.32.37-.2.73.23,1a.61.61,0,0,0,.33.18.31.31,0,0,0,.1-.28l.31-.73.22.27c.44.26.66.53.45,1s0,.91.56,1c.33,0,.44.18.44.45,0,.09-.2.27-.53.37s-1,.39-1.49.67L13.07,143c-.32.28-.74.56-.62,1.19.11.27.34.63-.08,1l.11.18a2.7,2.7,0,0,0,.75.07,11.56,11.56,0,0,0,1.93-.5.88.88,0,0,0,.42-.19l2-.68a15.19,15.19,0,0,0,2.13-.77c.43-.1.85-.39,1.4,0a2.61,2.61,0,0,0,1.18,0c.64-.29,1.28-.67,1.81-.95,3.73-1.36,2.76-1.6,3.62-1.71.64-.11,1.39-.22,1.58-1,0-.09,0-.18.11-.18.31-.28.31-.64.09-.82A3.49,3.49,0,0,0,28,137.8c-.64,0,1.09.43-1.7.95a2.68,2.68,0,0,0,.52-.92c.2-.45-1.43-1.41-1.33-1.78a7.19,7.19,0,0,1,.41-.91,23,23,0,0,0,.91-2.37A12,12,0,0,0,28,130.84c.2-.55,3.57-8.13,3.77-8.77a30.42,30.42,0,0,0,1.85-3.57l2.16-4.4a1,1,0,0,1,.74-.38c.43-.1.77.53,1.19.43,1.08-.12,1.52.6,2.59.39a19.23,19.23,0,0,0,2.26-.33,23.14,23.14,0,0,0,2.45-.78,4.07,4.07,0,0,0,1.5-.48,8.09,8.09,0,0,1,2.66-.88,7.87,7.87,0,0,0,1.92-.68c1.28-.57,2.45-1.32,3.72-2L57.2,108a18.14,18.14,0,0,0,2.22-1.59l.32-.19a16,16,0,0,0,3.07-2.06c.64-.38,1.06-.75,1.7-1.13l.31-.27c.32-.37.52-.83,1-1a7.31,7.31,0,0,0,1.69-1.31A22.06,22.06,0,0,1,69.77,98.29ZM76,76.52a3,3,0,0,1,.81,2.69C76.62,78.31,75.85,77.52,76,76.52ZM29.38,109.28c-.12-.45.3-.73.51-1.19C30,108.9,29.91,109.17,29.38,109.28Zm2.16-4a2.86,2.86,0,0,1-1.36,1.67c.62-.92.93-1.74,1.45-2.57,0,.09.11.09.11.18C31.42,104.61,31.21,104.89,31.54,105.24Zm25.4-31.35c.66.53.66.62-.09,1a2.11,2.11,0,0,1-.53.28s0-.09-.11-.09A6.94,6.94,0,0,0,56.94,73.89ZM56,75.63c0,.09.11.09.11.09a1.83,1.83,0,0,1-.42.55.32.32,0,0,0-.21-.08Zm-1.45,2.12s.1,0,.11.08c-.21.28-.1.73-.63,1-.11-.08-.11-.08-.21-.08A3.48,3.48,0,0,1,54.56,77.75Zm-17.65,27.1h.32a2.16,2.16,0,0,0-.2.64h-.21A5.91,5.91,0,0,1,36.91,104.85Zm.27,2.52c-.1.1-.43.1-.64.11l-.12-.36A2.74,2.74,0,0,1,38,105.55C37.69,106.1,37.49,106.73,37.18,107.37ZM64.11,95.25a32.16,32.16,0,0,1-5.59,4.66c-.43.28-.85.74-1.27,1a9.7,9.7,0,0,1-1.91,1c-.43,0-.74.38-1.06.57a9.46,9.46,0,0,0-1.28.75c-.53.38-1.27.67-1.58,1.4l-.63.28a29.42,29.42,0,0,1-4.69,1.92c-1.29.31-2.35.78-3.52,1.17l-3.53.9a3.57,3.57,0,0,1-.76-.16c-.11,0-.21.09-.43.1a.79.79,0,0,1,.1-.46c.31-.73.72-1.46,1-2.19l.21-.19c.32-.28.64-.38.85-.65.11-.1.1-.37.1-.46.21-.18.42-.28.52-.55.31-.55.51-1.19.93-1.83l-.43.28-.11-.09a2.38,2.38,0,0,0,.1-.45l.44.26c.31-.28.09-.55-.13-.81s-.33-.36,0-.55a5.43,5.43,0,0,0,.73-.83c-.44-.26-.34-.62.2-.91a.45.45,0,0,0,.09-.36.84.84,0,0,0,.1-.46l1.25-1.92c.1-.1,0-.37.09-.55a6.26,6.26,0,0,1,.93-1.65,6.24,6.24,0,0,1,.2-.64c.1-.18.32-.28.53-.46a.52.52,0,0,0,.32-.1c.1-.09.1-.18.21-.19.74-.29.74-.29,1-1.11l-1,.3c.83-1.11.83-1.11,1.27-.85.42-.46.41-.64,0-.9-.11.09-.22.09-.21.18a.64.64,0,0,0-.32.19c0-.09,0-.09-.11-.08a5.67,5.67,0,0,0,.51-1.1h.21V90a1.58,1.58,0,0,0,.43.17,2.35,2.35,0,0,0,.51-1.27c-.32.18-.42.37-.74.56,0-.18-.11-.36,0-.46l1.14-1.92.31-.55c.21-.1.21-.28.31-.46.2-.55.52-1,.72-1.47.11.09.11.09.22.09L49.8,86a.87.87,0,0,0,1-.47,1.13,1.13,0,0,1,.2-.64c.52-.65.41-.83-.24-.9l.1-.37.63-.92c.2-.45.63-.55,1.17-.57.32,0,.32-.09.41-.46a2.09,2.09,0,0,1-.53.29,3.7,3.7,0,0,0,.09-1,8.56,8.56,0,0,1,1.27-.66v.09l2-3A18.27,18.27,0,0,0,57,75.52c.31-.55.94-1.11,1-1.65.09-1.09,1.14-1.84,1.77-2.67a9,9,0,0,1,.94-1.2l.31-.64a.94.94,0,0,1,.85-.38,16.52,16.52,0,0,1,4.21.81c.43.08,1,.52,1.63.68.33.18.76.26,1,.43.11,0,.11.09.22.09.66.61,1.42,1.23,2.09,1.94a18.17,18.17,0,0,1,1.45,2.23,3.7,3.7,0,0,1,.61,3.15c0,.27-.2.54-.2.91a4.34,4.34,0,0,0-.51,1.18,23.44,23.44,0,0,1-.88,3.46c-.4,1.28-.91,2.56-1.42,3.84-.62,1.1-1.24,2.2-2,3.3a14.53,14.53,0,0,1-1.57,1.84C65.79,93.68,65,94.42,64.11,95.25Z"></path><path class="cls-1" d="M167.07,101.34c.84-1.1,1.67-2.21,2.61-3.32-.1,0-.1,0-.11-.09-.42.47-.94.93-1.36,1.48s-.83,1.11-1.36,1.57a11.51,11.51,0,0,0-2.21,2.14,18.32,18.32,0,0,1-2.62,2.95,36.81,36.81,0,0,1-3.26,3.34,1,1,0,0,0-.3.73s0,.09.11.08.21,0,.21-.09c.31-.46.85-.65,1.16-.93.84-1,1.88-2.31,2.93-3.42.63-.65,1.16-1.29,1.89-2A10.71,10.71,0,0,1,167.07,101.34Z"></path><path class="cls-1" d="M155.35,115.28c.11.08.32-.1.54-.2s.1-.27.2-.27a21.21,21.21,0,0,1,1.47-1.58l2.53-2.23c.74-.47,1.15-1.38,2-1.94.42-.29.52-.83.83-1.2,1.06-.93,1.57-2,2.51-3v-.27c-.22-.27-.43-.08-.64.19-.42.37-.52.92-.84,1.11-.95.74-1.46,1.75-2.3,2.49-.63.83-1.59,1.4-1.89,2.22-1.07.39-1.25,1.48-2.11,1.86a15.88,15.88,0,0,0-2.2,2.31A.36.36,0,0,0,155.35,115.28Z"></path><path class="cls-1" d="M158.15,110.78c.11-.1.1-.19,0-.27a.12.12,0,0,0-.21.09,1.38,1.38,0,0,0-.94,1C157.41,111.43,158,111.23,158.15,110.78Z"></path><path class="cls-1" d="M171.3,98.07s-.22,0-.21.19c-.11,0,.11.09.32.08,0,0,.11,0,0-.09S171.41,98.07,171.3,98.07Z"></path><path class="cls-1" d="M174.8,91.75c-.83,1-1.78,2-2.5,3a5.27,5.27,0,0,1-.63.73,3.76,3.76,0,0,0-1.46,1.94c.53-.38.73-.92,1.26-1.21a3.85,3.85,0,0,0,.84-.92,1.8,1.8,0,0,1,.73-.74c0-.18.11-.28.42-.65a11.64,11.64,0,0,0,1.47-1.66c.1-.18.2-.46.09-.63C174.91,91.66,174.8,91.66,174.8,91.75Z"></path><path class="cls-1" d="M131.92,106.78c-.21-.09-.32.19-.53.37a.94.94,0,0,0-.1.28l.65,0C131.93,107.14,132.25,106.86,131.92,106.78Z"></path><path class="cls-1" d="M171.93,97.61c.21-.1.32-.19.21-.37A.23.23,0,0,0,171.93,97.61Z"></path><path class="cls-1" d="M169.79,97.84c.32,0,.32-.1.31-.19s.11-.18,0-.09c-.32,0-.43,0-.42.19S169.79,97.84,169.79,97.84Z"></path><path class="cls-1" d="M176.1,91.72c0-.36-.13-.63-.14-1.17a8.41,8.41,0,0,0-.94,1.11C175.34,91.38,175.77,91.64,176.1,91.72Z"></path><path class="cls-1" d="M149.21,137.67a1.16,1.16,0,0,1,.66.71,1.37,1.37,0,0,0-.12-.72A1.1,1.1,0,0,0,149.21,137.67Z"></path><path class="cls-1" d="M150,137.11a.59.59,0,0,0-.2.55C150,137.57,150.17,137.38,150,137.11Z"></path><path class="cls-1" d="M150.38,132.49c.11,0,.32,0,.32-.19.09-.63-.66-.53-1.1-.79.23.27,0,.46-.2.64a3.2,3.2,0,0,1,.87.07C150.38,132.31,150.48,132.4,150.38,132.49Z"></path><path class="cls-1" d="M185.57,78.29c-.52.74-.83,1.56-1.46,1.93a8,8,0,0,0-1.66,2.67c-.11.09-.21.18-.1.36s.65.08.64-.2.42-.28.53-.37c.32-.28.42-.46.41-.73-.21,0-.21.27-.53.19,0-.72.3-1,1-1,.22.09.32,0,.43-.19a1.8,1.8,0,0,1,.19-.73,2.42,2.42,0,0,0-.42.46c.1-.45.1-.45.42-.46.53-.28.74-.83,1.05-1.2s.42-.64,0-1C185.77,77.92,185.67,78.11,185.57,78.29Z"></path><path class="cls-1" d="M174,94.3c.11,0,.11-.09,0-.18s-.21,0-.21.1a2.54,2.54,0,0,1-.75.38A1.2,1.2,0,0,0,174,94.3Z"></path><path class="cls-1" d="M150,129.69c.22.09.54-.1.85-.29-.32,0-.54-.35-.86,0C149.88,129.43,149.88,129.61,150,129.69Z"></path><path class="cls-1" d="M166,104.08c.22.09.43-.1.54-.1l.31-.28c.83-1.29,2-2.22,2.61-3.5a.84.84,0,0,0-.74.29,4.66,4.66,0,0,1-.95.93c.11.08.33.17.11.26a.27.27,0,0,1-.11-.26l-1.78,2.21C166.05,103.72,165.63,103.91,166,104.08Z"></path><path class="cls-1" d="M150.19,128.79c.1.08.21,0,.32,0,.53-.38-.23-.54-.13-.9C150.07,128.25,150,128.52,150.19,128.79Z"></path><path class="cls-1" d="M150.08,142.45c-.11.27-.32.37-.31.55s.22.26.22.26c.21-.18.09-.45.09-.54S150.18,142.54,150.08,142.45Z"></path><path class="cls-1" d="M151.21,149.66c.1-.46-.23-.9,0-1.27a.43.43,0,0,0-.54-.17h-.21l.11.27c.65.34.13.9,0,1.26C150.68,149.67,151.23,150.29,151.21,149.66Z"></path><path class="cls-1" d="M170.57,99.27c.11,0,.11-.19,0-.27s-.33,0-.32.09c-.32.46-1,.57-.84,1.11A2.14,2.14,0,0,0,170.57,99.27Z"></path><path class="cls-1" d="M181.85,84.8c.1-.36-.12-.36-.23-.45s-.32,0-.42.1c.1.09.11.18.21.18C181.53,84.81,181.75,85,181.85,84.8Z"></path><path class="cls-1" d="M150.41,147.6a2.16,2.16,0,0,1,.2-.64c.21-.19,0-.27-.22-.27s-.11.1-.1.19C150.3,147.24,150.19,147.42,150.41,147.6Z"></path><path class="cls-1" d="M151.15,151.38a1.13,1.13,0,0,1,.22.54c.12.36.23.53.55.62a.34.34,0,0,0-.11-.45c-.22-.27-.55-.44-.13-.81.11,0-.23-.54-.34-.72s-.21.1-.32.19C150.81,151,150.82,151.21,151.15,151.38Z"></path><path class="cls-1" d="M148.59,134.16c0,.18,0,.27.22.27a.11.11,0,0,0,.11-.1c0-.18,0-.27-.12-.27Z"></path><path class="cls-1" d="M151,126.87c-.21.18-.53.46-.41.73C151,127.5,151.12,127.32,151,126.87Z"></path><path class="cls-1" d="M150.87,126.06c0-.09-.11-.09-.21-.09s0,.27,0,.27S150.87,126.06,150.87,126.06Z"></path><path class="cls-1" d="M151.78,123.5c.11.09.22,0,.11-.09s0-.18-.11-.18c-.12-.18-.33,0-.32.1S151.46,123.51,151.78,123.5Z"></path><path class="cls-1" d="M150.54,121c.22.26.32.08.65.07C151,121,150.75,120.81,150.54,121Z"></path><path class="cls-1" d="M150.4,133.21c.11.09.22.18.32,0s.1-.46-.12-.45-.22-.09-.22-.18c-.43,0-.22-.18-.11-.36-.86.11-.85.56-.74.92C149.75,133.32,150.18,133,150.4,133.21Z"></path><path class="cls-1" d="M151.06,124.69h-.22c-.21.09-.32.19-.2.55.11.08-.21.36.33.35,1,0,.74-.74.94-1.2v-.18C151.37,124.05,151.38,124.6,151.06,124.69Z"></path><path class="cls-1" d="M168.58,60.23l-.1.1v.36C168.59,60.6,168.8,60.41,168.58,60.23Z"></path><path class="cls-1" d="M181.54,85.26c-.33-.08-.78-1-1.08-.07A2.09,2.09,0,0,0,181.54,85.26Z"></path><path class="cls-1" d="M132.77,106.13a.62.62,0,0,0,.65.16C133.2,106,133.09,106,132.77,106.13Z"></path><path class="cls-1" d="M180.25,85.47c.44.44,0,.72-.08,1-.44-.08.09-.46-.23-.45s-.53.29-.74.47c0,.09,0,.09-.1.18-.95,1-1.89,2.31-2.94,3.42,0,.09-.09.36,0,.36s.22-.09.21-.18c.21-.19.43-.29.53-.56.62-.92,1.58-1.57,2.2-2.49.32.08.65.43.86.07a2.49,2.49,0,0,0,.53-.47c.63-.74.62-.83,0-1.53v-.1C180.24,85.2,180,85.39,180.25,85.47Z"></path><path class="cls-1" d="M177.56,90.06c0,.09.22.08.33.08a.87.87,0,0,0,.19-.91C177.76,89.42,177.45,89.7,177.56,90.06Z"></path><path class="cls-1" d="M161.83,84.37c-.21.27-.42.46-.41.64A.57.57,0,0,0,161.83,84.37Z"></path><path class="cls-1" d="M169.28,58.14a3.19,3.19,0,0,0,.52-1h-.22a5,5,0,0,1-.4,1Z"></path><path class="cls-1" d="M168.77,59.05c0,.37.12.45,0,.73C169.1,59.59,169.1,59.5,168.77,59.05Z"></path><path class="cls-1" d="M179.7,162.83c-.42.55-1.17.57-1.7.85,0,0,0,.1-.21.1l-.86.29c-.32-.17.21-.27,0-.36-.74.2-1,.29-1.27.66s-.63.65-1,.57a1.51,1.51,0,0,0-1.28.12,18.53,18.53,0,0,1-7.08.8,12.44,12.44,0,0,1-2.82-.84,5.71,5.71,0,0,0-1.51-.42c-.22-.08-.33-.08-.44-.26a33,33,0,0,0-3.06-2c-.11,0-.11-.08-.11-.08-.23-.54-.88-.8-1.32-1.24-.45-.71-1.32-1.14-1.77-1.95-.79-1.61-2-2.85-2.47-4.64v-.1a.48.48,0,0,0-.54-.16c-.11.09-.11.18,0,.36s.44.26.34.53c-.3,1,.58,1.62.92,2.42.33.54.56,1,.9,1.61a1,1,0,0,1-1-.43c-.55-.53-.47-1.34-1.12-1.87-.11-.18-.23-.36,0-.54,0-.09,0-.18-.22-.36a1.12,1.12,0,0,1-1-1.24A1.4,1.4,0,0,0,151,154a6.3,6.3,0,0,1-.58-2,.78.78,0,0,0-.45-.71c-.32.09.12.36-.42.37a.75.75,0,0,1,0-.82,2.76,2.76,0,0,1-.45-1c-.11-.09-.12-.27.1-.18s.32,0,.32-.1a3,3,0,0,1-.24-.9c-.21,0,0,.18-.2.28-.34-.45-.34-.72.08-1.18-.33-.18-.65-.08-.66-.44.54.08.75-.11.53-.28-.54-.35,0-.82-.35-1.26-.22-.09-.11-.18-.12-.27.64-.29-.12-.63-.12-.81-.12-.36-.54.1-.75.11a.75.75,0,0,1,.3-.73c.65-.2.51-1.28-.14-1.63-.1.18.33.54-.2.64-.23-.54.07-1.36,1-1.74.11,0,.11-.1.1-.28a.2.2,0,0,0-.22-.17c-.64,0-.87-.44-1.19-.52,1,0,.85-.47.84-.83a.91.91,0,0,1,.19-1c-.22-.27-.13-.9-.88-1a.18.18,0,0,1,.1-.27c.85-.38.84-.83,0-1.27a.27.27,0,0,0-.11-.26c.32.08.11.17.11.26.43,0,.53-.19.53-.46a10.36,10.36,0,0,1,.15-2.54c.1-.54-.35-1.44.17-2.08.21-.1,0-.18,0-.18-.43-.17-.22-.36-.12-.72a1.62,1.62,0,0,0,.52-.65c-.22-.45.41-1-.35-1.35,0,0,0-.18.1-.18.64-.2.41-.73.19-1.09.32-.1.43-.19.75-.11s.32-.1.32-.28-.22-.08-.33-.08-.43,0-.43-.26,0-.54,0-.91c-.11-.17-.11-.45-.33-.62-.11,0-.11-.09,0-.18s.22,0,.22.08.12.36.55.35a1.07,1.07,0,0,1,.3-.73c.21-.36-.12-.45-.12-.72s0-.36-.23-.36-.43,0-.42.1c-.11.28.11.27.33.36a.29.29,0,0,1,.11.27.87.87,0,0,1-.43.19.22.22,0,0,1-.21-.18c0-.36-.13-.72.08-1,0-.09-.11-.27.21-.19s.75-.11.63-.56a1.67,1.67,0,0,1,.43-.28c.21,0,.32,0,.21-.19-.34-.62.71-1.73,1.46-1.66.44.08.43-.37.85-.47.11,0,0-.18,0-.18-.32,0-.43.19-.65,0,.73-1,1.68-1.84,2.41-2.77.43-.28.63-.64.52-.91-.53.19-.74.74-1.38.66-.32.46-.85.47-1.39.58a1.21,1.21,0,0,1,1.39-.58c-.22-.26,0-.45.09-.54a4.57,4.57,0,0,1,.84-1.11,16.42,16.42,0,0,0,2.2-2.4s.43,0,.32-.1c-.44-.35-.43,0-.54,0-.53.29-.73.93-1.47,1.39-.11.1-.32.19-.43,0s-.55-.25,0-.54l.1-.09a5.78,5.78,0,0,1,.58-2.73c-.31.46-1.28.39-1.37,1.21,0,.27,0,.63-.63.38-.22-.09-.32.1-.43.19.11.27,0,.45.33.44.54,0,.55.26.34.45a2,2,0,0,1-.31.82l-.29,1.36a2.51,2.51,0,0,1-1.57,1.58c0-.09-.33-.27-.12-.45.52-.56.18-1.45.7-2.28.1-.09.62-.92-.24-.9.1-.27.64-.2.64-.47s-.33.1-.43,0c.72-1,.72-1,.6-1.55-.2.46-.63.38-.73.83-.11-.27.07-1.63.39-1.73s.75-.37.63-.64c-.22-.09-.11-.18-.12-.36-.31.19-.2.54-.51.82a2.31,2.31,0,0,1,.19-1c.21,0,.22.09.32.18.76.25.54-.29.64-.56.1-.09.31-.28.21-.28-.44-.35-.12-.45.09-.63.33.35.32,0,.42-.19.21-.37-.23-.72.41-.83.11,0,0-.09,0-.18-.55-.44-.34-.8.19-1v-.09c.31-.46.3-1.09,1.16-1.11.1,0,.2-.46-.12-.54s-.12-.27-.12-.45c.1-.36.31-.55.19-.82s.11-.18.32-.19.22.09.22.18c0,.27-.31.46,0,.81a6.8,6.8,0,0,1,.51-1.1c.11-.18.1-.27-.11-.35-.76-.35-.44-.45.09-.46a2.2,2.2,0,0,0,.54-.19c0,.27-.1.54-.09.81-.1.55-.62,1-.61,1.65s-.62,1-.71,1.64a5.66,5.66,0,0,0-.28,2l.11.09c-.11,0-.11-.09-.11-.09a1.22,1.22,0,0,1-.53.28c-.11-.09,0-.54-.33-.44a1.82,1.82,0,0,0-.42.73c0,.27.33.17.44.08s.21.09.22.18c-.21.54.44.8,0,1.35l.22.27c.11,0,.32-.1.32-.19s.21-.27.1-.36c-.23-.63.3-.92.71-1.47,0-.09.32-.19.21-.27-.65-.26,0-.64,0-.91s.1-.63-.34-.8c-.11,0-.11-.18-.11-.18a.67.67,0,0,1,.43-.1c.43.17.54.08.42-.28a.38.38,0,0,1,.2-.55,1.81,1.81,0,0,0,.72-1.38,1.18,1.18,0,0,1,.31-.82c.84-.74.92-1.92,1.76-2.66.21-.19.31-.46-.12-.63s-.55-.35-.23-.54a3.9,3.9,0,0,0,.83-1.56c.41-.91.81-1.92,1.33-2.83.08-.91,1.14-1.66.8-2.64,0-.09.1-.1.21-.19.41-.82,1.14-1.75,1.44-2.57.21-.45,0-.72.73-.92a.92.92,0,0,0,.31-.55,1.83,1.83,0,0,1,.83-1.38c.84-.83.71-1.91,1.33-2.83a15.24,15.24,0,0,1,1.66-2.75l2.93-3.6a57.85,57.85,0,0,1,4.72-5c.53-.46.84-1,1.26-1.29.95-.84,1.47-1.67,2.31-2.41,1-1.11,1.89-2,3-3.06,1.67-1.84,3.9-3.43,5.79-5.2.42-.37,1,.16,1.5-.12a3.59,3.59,0,0,0,1.8-1.31c.31-.46.84-.66,1.16-1.11,0-.28,1.16-.85,1.48-.76.11,0,.11,0,.22.08a5.77,5.77,0,0,1,.79,1.34c.45,1,.14,1.35-.06,2.17a14,14,0,0,1-1.4,4.65c-.93,1.65-1.85,3.39-2.89,5-.21.1-.31.37-.42.65a29.61,29.61,0,0,1-2.08,2.85c-.52.64-.72,1.37-1.24,1.93s-1.16,1-1.15,1.74c.12.18-.09.46-.31.46-.42.28-.53.47-.41.74.21,0,.42-.28.74-.38,0,.18-.21.27,0,.54.21-.64,1.06-1.11,1-1.65-.11,0-.21.18-.32.09a.44.44,0,0,1,.32-.09c.21-.1.32-.37.42-.56.52-.91,1.15-1.56,1.66-2.39.95-1.1,1.67-2.3,2.61-3.31.95-.84,1-1.93,1.77-2.85a15.44,15.44,0,0,0,1.35-2,17,17,0,0,0,1.71-4.93,3,3,0,0,1,.08-1c.22-.1-.13-1.18.38-2.28.1-.18,0-.27-.12-.54a5.56,5.56,0,0,1-.46-1.25,1.39,1.39,0,0,0-.78-1.25c-.44-.44-1.19-.42-1.63-.59-1.84-.68-3-.2-4.1-.45-.32,0-.42.28-.52.37-.33.1-.64.29-.86.11a1,1,0,0,0-.87-.07,9.33,9.33,0,0,0-1.69,1.22c-1.05.84-2.11,1.5-3,2.24s-2,1.22-2.75,1.87c-1.58,1.58-3.39,2-4.54,3.73-.41.73-1.15,1.11-1.68,1.67a2.89,2.89,0,0,1-.83,1.28c-1.15,1.3-2.09,2.59-3.24,4.06L169.18,72a16.38,16.38,0,0,0-3.12,4.69c-.31.55-.83,1.28-.6,2a11,11,0,0,1-1,1.47c-.1.19-.1.28.23.54.11.09-.1.36-.2.55,0,0-.21.09-.22,0-.33-.35-.43,0-.53,0-.32.18-.42.73-.63.92s0,.27.22.26c0-.09.1-.27.21-.27l-.21.27c-.1.19-.21.19-.42.37-.32,0-.64.2-.41.56s.12.72-.09,1.08c-.62.83-1.14,1.66-1.76,2.67a4.39,4.39,0,0,1-.94,1.29c0-.18.21-.37.3-.82-.73.65-.72,1.19-1.35,2,.53-.29.53-.56.85-.66a12.82,12.82,0,0,1-.92,2c-1,1.83-1.63,3.83-2.56,5.76a52.62,52.62,0,0,0-2.45,5.48c-.51,1.28-1,2.65-1.52,4.11-.08,1.08-.91,2.1-.57,3.18-.21.09-.32.19-.31.28a9.69,9.69,0,0,1-.71,1.82,55.9,55.9,0,0,0-1.87,7.55c-.1.28-.1.46-.31.55-.75.29-1.05.93-1.69,1.4-2.32,2-4.85,3.91-7.17,5.87-1.59,1.3-3.27,2.79-5,3.91a8.3,8.3,0,0,1-1.69,1c-1,.56-1.8,1.13-2.76,1.6a32.5,32.5,0,0,1-4.59,1.56,2.83,2.83,0,0,1-3.47-1.28,18.31,18.31,0,0,1-.38-2.43c-.57-1.26-.17-2.8-.31-4.16-.15-1.71.89-3.18.74-4.81.63-.83.4-1.64.81-2.37.31-.46.84-.74,1-1.2a8.27,8.27,0,0,1,1.88-2.22c.31-.45.84-.74.83-1.37-.33-.08-.21.46-.75.2a.46.46,0,0,1,.21-.37c-.11-.09-.22-.09-.43,0s-.22,0-.22-.18c0-.45.3-.73.84-.56.11,0,.22.09.33.08.63-.37.43.18.44.45.21-.19.42-.28.52-.56.11-.09.22-.18.11-.18-.87-.16-.45-.71-.56-1,0-.09,0-.37.31-.28s.43,0,.44.35c0,.18.12.36.33.26a6.87,6.87,0,0,0,1.78-1.94c-.32.1-.31.28-.53.38s-.42.37-.63.28c-.55-.17.1-.27,0-.45a.36.36,0,0,1-.11-.18c-.21-.08-.22-.26,0-.36a1.83,1.83,0,0,0,.83-1.11c0-.09.21-.27.31-.27l.11.08c-.2.28-.09.55.24.72a.76.76,0,0,0,.74-.56c.2-.27-.12-.36-.44-.35a.66.66,0,0,1-.33-.17c.21-.46.84-.75,1.27-1s.52-.73.94-.93c0-.09-.22-.17-.32-.17a.79.79,0,0,1-.65,0c-.32,0-.2.36-.42.46-1.27.84-1.78,2-2.73,2.78-1.15,1.2-1.76,2.66-3.36,3.6-.1.19-.09.55-.52.56a7.35,7.35,0,0,1,.4-1.1c.1-.45-.12-.63,0-1a5.25,5.25,0,0,0,1.23-2.56,17.24,17.24,0,0,1,.6-1.92A6.13,6.13,0,0,0,127,107c0-.37-.13-.91.51-1.19.11-.1.1-.19.1-.46s-.12-.36,0-.54c.74-.56.73-1.28.93-1.83.09-.82,1.15-1.29.92-2.19,1.05-.84.81-2.1,1.65-3a12.36,12.36,0,0,1,.7-1.82A19.76,19.76,0,0,0,133.32,93c.4-1.1,2.74-2.33,3.25-3.43.41-.91,1-1.83,1.44-2.84a12.28,12.28,0,0,1,1.55-2.66c.52-.91,2.7-4.22,3.11-5a13.73,13.73,0,0,1,1-1.66,5.13,5.13,0,0,0,1.35-1.93l3.44-4.87c.61-1.47,1.76-2.58,2.37-4.13L153,62.5c.52-.56.71-1.74,1.15-1.48s.85-.47,1.59-.94a12.09,12.09,0,0,0,1.77-2.21c-.21-.09-.31.28-.53.19l6.09-6.29a1.42,1.42,0,0,1,.84-.84c1.49-.75,1-1.74,2.53-2.32a8.86,8.86,0,0,1,1.93-.4.94.94,0,0,1,.87.7c.12.27,0,.72.13.9a4,4,0,0,1-.24,3.35,33.82,33.82,0,0,1-2,5.48c-.5,1.55-1.23,2.2-2.06,3.85a4.14,4.14,0,0,1-1,2,43.77,43.77,0,0,1-2.69,4.77,40.47,40.47,0,0,1-3.74,5.51,7.58,7.58,0,0,1-1.56,2.39,29,29,0,0,0-2.49,3.68c-1.36,1.66-2.5,3.41-3.87,4.89-.31.27-.19.91-.73,1.1-.63.37-.94,1.11-1.46,1.84.22.09.53-.46.86-.2a.66.66,0,0,1-.85.38c-.33,0-.43.1-.32.28.56.71-.41.64-.62.83,0,.18.44.44,0,.81a1.12,1.12,0,0,1-1.08-.33c.45.62-.19.91-.4,1.36v.09c.21,0,.32,0,.21.18s-.21-.08-.21-.18c-.65-.16-.75.38-1.07.57a2.61,2.61,0,0,0-1.23,2.29c0,.27,0,.36-.32.46-.11-.18.1-.36-.12-.63a1.84,1.84,0,0,0-.84.93A7.1,7.1,0,0,0,140,97.36c.11.09.22.18.22.27,0,.27-.09.45-.41.46a.5.5,0,0,0-.32.46,1.36,1.36,0,0,0-.52.65c.11.08.11.17,0,.18-.43,0-.42.19-.63.28.11.09.32.18.12.54-.11,0-.32.1-.43,0-.23-.35.1-.36.31-.55-.55-.16-.54,0-.65.11a13.67,13.67,0,0,1-2,2.22v.36l-.32.28c-.62.92-1.79,1.58-2.3,2.67-.21.37-.09.55.34.54,1,0,1-.57,1.16-1-.11-.09-.33-.09-.12-.27s.53-.29.64-.11c.33.27.44.08.43-.1s.2-.54.42-.64c.42-.37.41-.91.83-1.29.21-.18.42-.37.19-.73,0-.18.21-.27.32-.36a9.84,9.84,0,0,0,2-1.59,16.31,16.31,0,0,1,1.77-2.21L142.42,96c.84-1.2,2.21-2.22,3.15-3.6.62-.92,1.9-1.31,2-2.49h.22a3.83,3.83,0,0,0,1.06-.57c.32-.09.64-.1.31-.36s-.11-.36.32-.28.43,0,.42-.19,0-.28.1-.37a10.19,10.19,0,0,0,1.68-1.76c.73-1,1.68-2,2.51-3.13.31-.64,1.16-.93,1.47-1.57.51-1.19,1.67-2.3,2.28-3.4a40.21,40.21,0,0,1,2.71-3.87,6.93,6.93,0,0,0,1.76-3,5.84,5.84,0,0,1,.42-.47,11,11,0,0,0,1.55-2.57l3.09-5.68c.21-.54.94-1.19,0-1.81-.11,0,.21-.09.21-.18,0,.18.22.17.33.08s.1-.09.21-.18c0,.36.11.26.11.08l.21-.27c0-.09,0-.09-.11-.09h-.11v-.18c.08-1.45.8-2.64,1.09-4,.62-1.29.91-2.47,1.53-3.84.1-.27-.24-.81.51-.92,0-.36.31-.73-.23-.81-.22,0-.33-.08-.23-.35a4.08,4.08,0,0,0-.48-2.16c-.33-.45-.55-.8-1.31-.79a2.62,2.62,0,0,1-1.07-.15c-.76-.07-2.39-1-3.14-.92-1.5.39-2.9.43-4.4.73a3.3,3.3,0,0,0-1.27.67c-3.59,2.89-4.09,4.62-5.56,6.28C145.33,63.86,145,64,144.51,65.87c-.4,1.27-2,2.39-2.92,3.59A12.88,12.88,0,0,1,140,72l-2.6,3.68c-.62,1.19-1.55,2.66-2.38,4a37,37,0,0,0-2.9,4.77,15.52,15.52,0,0,0-1.64,3.29A5.34,5.34,0,0,1,130,89c-.2.55-.95.93-.61,1.37,0,.18-.21.28-.32.28-.43.1-.31.46-.52.74v.09c-.21.18-.53.46-.09.82,0,.09,0,.09-.1.27a4,4,0,0,0-.94,1,3.53,3.53,0,0,0-.71,1.73c-.3,1-.82,1.92-1.12,2.92-.65-.25-.64.2-.42.28.12.63-.74.84-.72,1.38.11.18.22.45-.1.63a1.81,1.81,0,0,0-.62,1,20.3,20.3,0,0,0-.48,2.28c0,.27-.53.28-.52.64a1.9,1.9,0,0,1-.61,1.64.49.49,0,0,0-.31.46,6.57,6.57,0,0,1-.51,1.28c0,.36-.2.64-.19.91a16.61,16.61,0,0,1-.6,1.92,5,5,0,0,0-.69,2.82,23,23,0,0,0-1,3.19l-1.2,3.91c-.2.73-.18,1.64-1.13,2.2-1.17.66-.18,1.54-1.13,2.29a2.61,2.61,0,0,0-.74.74c.76,0,1.06-.66,1.6-.76-.1.27-.32.28-.42.37-.32.28-.85.47-.62,1,.11.18-.1.37-.43.28a3,3,0,0,0-.54-.08c.11-.18.42-.37.31-.55-.33-.26-.53.11-.64.2-2.12,1.41-3.91,3-6.14,4.31a26.66,26.66,0,0,0-2.54,1.68c-1.06.57-2.35.78-3,1.79a.66.66,0,0,1-.42.1A25.37,25.37,0,0,0,99,135a12,12,0,0,1-2.89.61,2.09,2.09,0,0,1-2.42-2.2,7.72,7.72,0,0,1,.82-1.83,7.86,7.86,0,0,0,.49-2,9.16,9.16,0,0,0,.29-1.46c0-.27.52-.82.72-1.19a12.73,12.73,0,0,1,1.53-3.56c.63-.83.5-1.82,1.23-2.66.32-.09.31-.46.31-.64s-.12-.27.09-.45a29.11,29.11,0,0,1,2.19-3l1.46-2.2a25.75,25.75,0,0,1,2.07-3.22,31.16,31.16,0,0,0,1.88-2.57c.73-.84,1.58-1.58,2.2-2.32.63-.92,1.47-1.57,2-2.4.1-.27.2-.54.42-.64a30.5,30.5,0,0,1,2.62-2.59A4.64,4.64,0,0,0,115.58,98a.66.66,0,0,0-.11-.45c-.88-.62-1.43-1.24-2.31-1.85-.32-.17-1.09-.7-1.61-.23a.94.94,0,0,1-1,0,10.35,10.35,0,0,0-2.29-1.12c-1-.25-2.05-.32-2.8-.48-1-.16-1.95-.59-2.93-.75-2-.49-4-1-6-.49-1.71.41-3.54.36-5.13,1.21a8.79,8.79,0,0,0-2.34,1.23c-.53.28-.73.92-1,1-.86.29-1.27.93-1.91,1.31-2.22,1.59-3.79,3.62-5.57,5.38-.63.74-1.15,1.56-1.78,2.21a48.2,48.2,0,0,0-4.38,5.8c-1.14,1.84-2.17,3.76-3.31,5.6a3.4,3.4,0,0,0-.4,1.37,7,7,0,0,0-.93,1.74c-.71,1.64-1,3.19-1.6,4.92a4.91,4.91,0,0,0-.4,1.19,9.52,9.52,0,0,1-.89,3.36,11.74,11.74,0,0,0-.43,4.63,9.72,9.72,0,0,0,.36,1.8c.77.79,1.45,1.86,3.06,2a6.81,6.81,0,0,0,2.69-.16,9.64,9.64,0,0,0,1.7-.85c.42-.19,1.07-.3,1.27-.85a2.8,2.8,0,0,1,.63-.46,23,23,0,0,0,2.43-1.87,7.59,7.59,0,0,1,2-2c.21-.18.53-.28.64-.46.41-.83,1.26-1.3,1.67-1.94.21-.46,1.06-.84,1.37-1.39a7.12,7.12,0,0,1,1.89-2c.52-.46.61-1.46,1.68-1.75.1-.1.1-.28.2-.37a9.37,9.37,0,0,0,1-1.11c1.37-1,2.09-2.31,3.25-3.51.62-.74,1.36-1.48,2.09-2.4.23.81-.4,1.36-.6,1.73-1,1.11-1.13,2.29-2,3.48h-.1c.33.62-.19,1.18-.28,1.72a5.83,5.83,0,0,1-.82,2c-.3,1-.59,2.1-.79,3.1-.18,1.18-.59,2.27-.67,3.36a2.14,2.14,0,0,0,.15,1.8c.44.54.89,1.25,1.33,1.69.12.45.66.62,1,.88a11.2,11.2,0,0,0,4,1.09,3.64,3.64,0,0,0,1.94.22c1.28-.48,2.79-.7,4.28-1.18,1.59-.77,3.3-1.53,5-2.47a19,19,0,0,1,1.79-1.31c1.17-.57,1.91-1.22,2.87-1.79a17.19,17.19,0,0,0,2.64-2l2.32-1.77.4-1.55a10.63,10.63,0,0,1,.38,2.52,1.1,1.1,0,0,0,0,1,17.69,17.69,0,0,0,1.61,4.48,8.52,8.52,0,0,0,1.66,1.95,4.3,4.3,0,0,0,3.15,1.38,13.86,13.86,0,0,0,3.34.1,8.38,8.38,0,0,0,2.56-.87,7.76,7.76,0,0,0,3.62-1.72c.1-.09.31-.37.42-.37a5.14,5.14,0,0,0,1.8-.95c.53-.37.85-.83,1.16-1a4.43,4.43,0,0,0,1.49-1c1.47-1.3,3.05-2.6,4.53-3.81a23.62,23.62,0,0,0,3.27-2.79c.53-.47,1.27-.94,1.9-1.41a1.06,1.06,0,0,1,0,.82c-.19,1-.38,2.09-.47,3a4.07,4.07,0,0,0-.26,2.45,4.59,4.59,0,0,0-.25,3c0-.09,0-.09.1-.09s-.11,0-.1.09c0,.46-.63.83.13,1.27,0,0,0,.09-.1.09-.54.1-.31.55-.3.91a14.45,14.45,0,0,0-.26,3c0,.27.55.17.44.35-.64.29-.3.83-.29,1.19l.15,1.89c.1-.09,0-.18.43-.19-.32.28.34.81-.41,1-.11,0-.1.18,0,.27s.11.18.11.27l.16,2.26c-.1.54.67,1,.57,1.43-.3.91.15,1.81.39,2.8a6.52,6.52,0,0,0,.25,1.53,2.6,2.6,0,0,1,.46,1.25c0,.36.12.54.13.9.68,1.34,1.78,2.59,2,4.12v.18c.54.26.55.89,1,1.33a21.41,21.41,0,0,0,2.88,3.46,12.77,12.77,0,0,0,1.76,1.5c.33.17.33.53.66.62a5.54,5.54,0,0,1,2.28,1.12c.33.17.44.35.77.52a34.27,34.27,0,0,1,3.36,1.19,23.48,23.48,0,0,0,6.26,1.12,19.55,19.55,0,0,0,5.78-1.31c1.71-.49,3-1.61,4.46-2.55a3.23,3.23,0,0,0,.52-.82C179.82,163.37,179.7,163,179.7,162.83ZM154,112.5l.11.09c.11.18-.1.27-.31.55C153.79,112.78,153.78,112.6,154,112.5Zm-2,5.3c-.11-.18-.12-.36-.23-.54C152.5,117.33,152.5,117.42,152,117.8Zm13.61-38.59a4.16,4.16,0,0,1-.72,1.19C164.63,80,164.74,79.77,165.58,79.21Zm-1.43,7.72.11.09c-.1.19-.21.19-.43.1C163.83,86.94,164,86.94,164.15,86.93Zm-.73.66a.21.21,0,0,1,.32.17c0,.18-.1.18-.21.27s-.43,0-.43-.17A.31.31,0,0,1,163.42,87.59Zm-4.49,10.69a.89.89,0,0,0-.41.73h-.32c-.12-.54.3-.73.4-1.1.11-.18.21-.18.22,0S159,98.09,158.93,98.28Zm1.63-3.93c-.11,0-.11-.09-.11-.09-.22-.09,0-.09.11-.18a.08.08,0,0,1,.1.08C160.67,94.25,160.67,94.34,160.56,94.35Zm1.37-5.83c.12.36.67.8.24,1s.24,1.08-.84.84A2.7,2.7,0,0,0,161.93,88.52Zm-.58,2.55c0,.09,0,.18-.21.19a.42.42,0,0,1-.22-.09c0-.09,0-.18.1-.18A1.41,1.41,0,0,1,161.35,91.07Zm-.06-2.17-.42.28C161,88.82,161,88.82,161.29,88.9Zm-.79,3c.11-.28.21-.28.43-.38s.43,0,.54.26-.1.28-.31.37l-.21.28v-.09l-.65.1A.9.9,0,0,1,160.5,91.91Zm-.61,1.19,0,1C159.47,93.65,159.57,93.37,159.89,93.1Zm.14,1.44c.22.09.43.08.22.36,0,.18-.21.27-.42.28-.43-.08-.75.11-.74.47A.84.84,0,0,1,160,94.54Zm-2.37-.22a.61.61,0,0,1,.11.27.3.3,0,0,1-.1.19.13.13,0,0,1-.22-.09C157.56,94.69,157.56,94.6,157.66,94.32Zm.6,2.61a1.59,1.59,0,0,1,.3-.73c0-.18.1-.45.31-.46.22.18.66.35.77.62s-.1.36-.42.37c-.1.18,0-.18-.11-.27H159a9.91,9.91,0,0,0-1.33,2.84c-.11.09-.21.28,0,.36s.31-.19.42-.28c-.1.54-.1.54-.63.65-.11.09-.21.18-.21.27-.21.1-.21.37-.64.38a6.63,6.63,0,0,1,.41-1,.77.77,0,0,0,.31-.55C157.21,98.32,158,97.66,158.26,96.93Zm-1.94-.13c.1-.19.21-.28.2-.46l.11.09a.76.76,0,0,1-.19.82C156.22,97.34,156.11,97.17,156.32,96.8Zm-2,7.55c-.1,0-.21,0-.21-.08-.44-.26-.12-.27,0-.36C154.23,104.08,154.56,104.17,154.34,104.35Zm1-5c.11-.1.11,0,.11.08s0,.18-.21.19c0,.09-.11,0-.11-.09A.21.21,0,0,1,155.3,99.36Zm-.4,1c.32-.1.32.26.54.44-.32,0-.75.11-.86-.16A.32.32,0,0,1,154.9,100.36Zm-.68,3.45c-.11-.27,0-.54.2-.91C154.43,103.36,154.43,103.63,154.22,103.81Zm.07-1.9a1.27,1.27,0,0,1-.41,1C153.66,102.56,154,102.19,154.29,101.91Zm-.58,2.82a.61.61,0,0,1-.1.64A.68.68,0,0,1,153.71,104.73Zm-.31.82c.22.09.22.27.12.36a2.44,2.44,0,0,1-.41.91l0-1C153.08,105.65,153.19,105.56,153.4,105.55Zm-.94,1.2c.12.27.12.45-.09.63C152.15,107.3,152.25,107,152.46,106.75Zm-1.06,5.18c.34.54-.09.73-.19,1.09C151.1,112.57,151.41,112.47,151.4,111.93Zm-.58,2.55a1.49,1.49,0,0,1-.3,1.27A1.45,1.45,0,0,1,150.82,114.48Zm-.5,1.82c.12.27.12.36-.09.45C150.11,116.57,150.11,116.48,150.32,116.3Zm-.3.82c.21,0,.22.27.22.36s-.11,0-.32.09C149.92,117.39,149.8,117.12,150,117.12ZM148.69,88a.13.13,0,0,1-.22-.08c-.1,0-.11-.09-.11-.18a.36.36,0,0,1,.22.08c.11,0,.21,0,.22.09ZM157,78.33c-.22,0-.22-.09-.22-.18s-.11-.18.1-.18.11,0,.22.18A.31.31,0,0,1,157,78.33Zm10.46-17.07c0,.09,0,.09-.1.09s-.22,0-.22-.18l.1-.09C167.42,61.08,167.42,61.08,167.42,61.26ZM123.78,117.1a1.39,1.39,0,0,0,.41-.64c0-.18.1-.46.31-.37s.33,0,.43-.28c0-.09.32-.19.32-.1a.29.29,0,0,1,.11.27c0,.18,0,.36-.1.36-.75,0-.84.57-.94.93-.11,0-.21.19-.54.1C123.67,117.29,123.78,117.19,123.78,117.1Zm-12-15.28c.53-.37.73-1,1.26-1.47a9.24,9.24,0,0,1,1.36-1.57c0,.09,0,.09.11.08l-2.61,3.32a14.53,14.53,0,0,0-2.31,2.59l-1.78,1.94c-1,1.11-2,2.49-2.93,3.51-.21.27-.74.47-1.05,1,0,.09-.11.09-.21.09s-.11-.09-.12-.17c0-.37.21-.55.2-.64,1.27-1.12,2.21-2.23,3.37-3.43a23.65,23.65,0,0,0,2.51-3A7.88,7.88,0,0,1,111.8,101.82Zm-27.51,24c0-.27.1-.37.21-.37s.11.09.11.09A.32.32,0,0,1,84.29,125.81Zm2.21-2.31a1,1,0,0,1-.31.55c-.33-.09-.33-.18-.33-.45.21-.19.31-.37.52-.37S86.6,123.31,86.5,123.5Zm1-.66c-.21.1-.21.37-.53.19s0-.18.09-.45c.22-.1.21-.19.21-.28-.33-.44.2-.54.52-.73C87.54,121.93,87.87,122.38,87.45,122.84Zm3.44-4.51h-.1c-.11-.09-.12-.18.1-.28H91C91.11,118.23,91.11,118.23,90.89,118.33Zm1.48-1.39a.35.35,0,0,1-.12-.18c-.1,0,0-.09.11-.1s.11,0,.22.09S92.47,116.93,92.37,116.94Zm.81-2.11a54.75,54.75,0,0,0-4.72,5c-1.48,1.48-2.84,3-4.2,4.53-1.37,1.3-2.62,2.78-4,4.08-1.06.93-2.21,1.95-3.48,2.88-1,.75-1.91,1.22-2.76,1.88a11.37,11.37,0,0,1-2.44,1.14c-.22,0-.43.1-.43-.08-.13-.63-.57-1-.15-1.63a2.06,2.06,0,0,0,.38-2c0-.09.11-.18.21-.27a12.06,12.06,0,0,0,1.51-4.65c0-.09-.22-.18,0-.18.64-.47.61-1.37.81-2.1.31-.55.41-1.1.94-1.38l.1-.18a41.23,41.23,0,0,1,2.67-5.31,7.25,7.25,0,0,1,1.46-2.21c.31-.37.51-.91.82-1.37a15.62,15.62,0,0,1,2.93-3.87,13.07,13.07,0,0,0,2.82-3.6c.2-.45.73-.65,1.26-1a38.1,38.1,0,0,1,4.63-4.27,13.12,13.12,0,0,1,2.33-1.68,19.28,19.28,0,0,0,2.34-1.24,5.33,5.33,0,0,1,2.35-.68c1.07-.21,2-.23,3-.35a7,7,0,0,1,3.34,0c1,.52,1.82-.14,2.58.21a1.61,1.61,0,0,1,.65.07c.76.35.76.44.35,1.08a45.73,45.73,0,0,1-3.87,4.61c-1.15,1.48-2.63,2.69-3.45,4.25-.94,1.37-2.42,2.4-3.57,3.7-.84.92-1.9,1.76-2.74,2.69A18.43,18.43,0,0,1,93.18,114.83Zm13.64,17.51c-.1.27-.1.54-.74.56.1-.37.53-.47.74-.56-.12-.36,0-.55.41-.56A.62.62,0,0,1,106.82,132.34Zm2.84-2.51a2.28,2.28,0,0,1,1-.57c-.12-.54.31-.37.52-.46a.81.81,0,0,1-.52.46C110.52,129.63,110.09,129.55,109.66,129.83Zm3-1.16c-.42.46-1,.66-1.27,1.12,0,.09-.32,0-.54-.08s0-.27.21-.28c.54-.19.85-.65,1.38-.93,0-.09,0-.09.1-.1s.11,0,.11.09S112.75,128.67,112.65,128.67Zm1.9-1.22a1.78,1.78,0,0,0-.42.28c-.42.37-.42.37-.65-.07-.11-.18-.53.1-.65-.17a1.74,1.74,0,0,1,1.06-.66c0,.36.23.45.44.35s.32-.09.32,0S114.66,127.36,114.55,127.45Zm1.26-1.3c-.12-.54.31-.64.74-.83A1.07,1.07,0,0,1,115.81,126.15Zm.59-2.63c.1-.1.2-.46.31-.28a.47.47,0,0,1,.23.36Zm.89,1.51c-.21.1-.64.11-.32-.26,0-.09.1-.09,0-.18v-.09c0-.09.1-.09.1-.18C117.28,124.67,117.83,124.84,117.29,125Zm17.48,6.65c0-.36.2-.37.42-.37C135,131.4,135,131.68,134.77,131.68Zm13,8.11c0,.09-.1.18-.21.18a.09.09,0,0,1-.11-.08c0-.18.11-.19.11-.19C147.75,139.7,147.75,139.7,147.75,139.79Zm0-18c-.74.38-1.15,1.29-1.9,1.58-1,.47-1.26,1.29-2.11,1.77-.42.37-1.06.38-1.26,1.11h-.32c-.44-.44-.76,0-1.18.12.52-.56,1-1,1.57-1.49a14,14,0,0,0,2.33-1.77c1-.75,1.69-1.4,2.74-2.33.11-.09.32-.18.43-.1s.11.18.12.36C148.18,121.41,148.08,121.69,147.76,121.79Zm0,11.58a.2.2,0,0,1,.22.17.22.22,0,0,1-.21.19c-.11-.09-.33-.08-.33-.18S147.61,133.46,147.71,133.37Zm-.63,5.26c0-.18-.12-.54.2-.55s.43,0,.44.26-.21.28-.42.37S147,138.72,147.08,138.63Zm3,14.31c.33.27.33.54.44.71C150.33,153.48,150,153.4,150.11,152.94Zm4.46,6.68c-.11.09-.11.18-.33.1.11-.09.22,0,.33-.1s0-.18.21-.18.21,0,.22.17a1,1,0,0,1,.22.45C154.79,160,154.78,159.62,154.57,159.62Z"></path><path class="cls-1" d="M204.4,115.48c0-.09.32-.28.32-.46s-.33-.26-.33-.17c-.22,0-.65,0-.42.37C204,115.4,204.19,115.49,204.4,115.48Z"></path><path class="cls-1" d="M206,113.54a3.11,3.11,0,0,0,.95-.74C206.16,112.55,206.4,113.35,206,113.54Z"></path><path class="cls-1" d="M225,114.82c.21-.28.31-.64.63-.65.53-.1.53-.38.63-.65-.54,0-1.59,1-1.8,1.49-.1.27-.31.28-.53.1-.43,0-.11-.09-.22-.26a.88.88,0,0,0,.2-.64c.1-.28.09-.46.42-.55.74-.29.84-.84,1.25-1.3-.73.74-1.58,1.21-2.32,1.86a21.76,21.76,0,0,0-2.85,2.24,23.94,23.94,0,0,0-2.75,2.06l-9.6,7.91c0,.18-.21.19-.21.19a.84.84,0,0,1-.44-.45c.32-.18.32-.27.42-.55s.52-.73.73-1.1c.51-.83.39-1.64.91-2.1A13.87,13.87,0,0,0,211,120c.21-.27.32-.37,0-.72a3.52,3.52,0,0,1-1.16,1.2c-.85.38-.85.56-.72,1.29-.33-.09-.45-.72-.14-1.27.32-.1.64-.19.42-.55,0-.18-.43,0-.64.2a.09.09,0,0,0-.11-.09,1.2,1.2,0,0,1,.31-.37c.86.07,1-.39,1.06-.75,0-.63.63-.74,1.06-.84.1-.27.42-.28.43.08,0,0-.32.1.11.09,0,.27.21-.1.21-.19.53-.46.51-1.09,1.25-1.75a5.09,5.09,0,0,0,.92-1.83,4.56,4.56,0,0,0,1.05-1.38c.09-.36.73-.65.08-1.09a1.2,1.2,0,0,0,1.17-.48,8.43,8.43,0,0,1,1.24-2.29,7.17,7.17,0,0,0,1.76-2.93c.31-.19.31-.19.31-.37.54-.1.74-.65,1.05-1a12.83,12.83,0,0,1,3.24-4.15,21.56,21.56,0,0,0,2.51-3c.31-.55,1-.84,1.36-1.57a7,7,0,0,0,.37-2.72c0-.09-.33-.18-.44-.18-1.19-.51-2.27-.67-2.94-1.55a.91.91,0,0,0-.86-.07c-.22,0-.43-.09-.54-.08-.44-.54-.87-.53-1.51,0-.1.19-.1.1-.32.1-.75-.25-.87-.61-1.42-1a19.46,19.46,0,0,0-2.17-.85c-.42.28-.3.73-1,.38a9.79,9.79,0,0,0-4.43-1.16c-.11.09-.33,0-.43,0a2.49,2.49,0,0,0-1.83.13,14.49,14.49,0,0,0-8.84,3.65l-3.69,3.25c-1.05,1.11-2.42,2.23-3.46,3.52-.41.82-1.37,1.21-1.78,2a32.14,32.14,0,0,0-2.4,3.4,8.76,8.76,0,0,0-2.09,2.68,17.3,17.3,0,0,0-2.27,3.85,41.24,41.24,0,0,0-3.3,6c-.31.91-1.34,2.47-1.75,3.56a15.66,15.66,0,0,0-.8,2.74c-.19.82-.39,1.45-.69,2.37a9.3,9.3,0,0,0-.38,2.45c.23.44-.18,1.36.36,1.53.88.52,1,1.42,1.45,2.22a2.13,2.13,0,0,0,1.75,1.23,1.47,1.47,0,0,0,1-.29c.21-.37.75-.47,1.28-.49a2,2,0,0,0,1.71-.67,4.79,4.79,0,0,1,1.59-1.12l.74-.47a18,18,0,0,0,3.16-2.88,15.28,15.28,0,0,1,2.52-2.41c.31-.37.74-.47,1.16-.93a14.2,14.2,0,0,0,1.78-2.13c.63-.74,1.37-1.2,2-1.94.53-.47,1.27-.94,1.14-1.66,0-.45.42-.64.85-.65a.62.62,0,0,0,.52-.47c0-.27,0-.27-.22-.35s-.1.09-.1.36c0,.45-.32.1-.64.11h-.54c.12.27-.21.37-.53.1v.36c.21.18.32.18.22.27a.46.46,0,0,1-.76,0c-.1,0-.32-.27,0-.27a.56.56,0,0,0,.53-.38c-.33-.08-.65-.07-1.17.57-.11.1-.1.55-.53.38s.09-.55.41-.65c.75-.37,1.16-1.29,2-1.85.22,0,.22-.1.43-.28,0-.36.09-.37.42-.47,0,0,.1-.18.32,0,0,.09-.21.36-.21.36-.31.28-.74.38-.62,1.1a1.44,1.44,0,0,0,1-1.47.73.73,0,0,1,.42-.73,1.47,1.47,0,0,1,.53-.29,15.11,15.11,0,0,1,3.25-3.33c.21-.18.42-.46.74-.47s.76,0,.75-.29,0-.36.1-.27c.76.25,1-.48,1.27-.84s.31-.74.73-.93a3.46,3.46,0,0,0,1.17-.84c.52-.64,1.16-.93,1.68-1.49.22-.09.22-.09.32-.09v.36c-.32.1-.31.55-.51,1.1a14.48,14.48,0,0,0-1.66,2.48,49,49,0,0,0-2.8,4.41c-1.65,3.11-3.73,6.05-5.27,9.44-.61,1.46-1.32,3.19-2.14,4.75a8.27,8.27,0,0,0-1,2.65c0,.18-.1.36-.42.46-.52.47-.4,1.1-.49,1.82,0,0,0,.18.11.18.55.35.45.71.13.9-.31.37-.1.55,0,.63.33.18.44.18.44.27.13.72.67,1,1.43,1.32a5.93,5.93,0,0,1,1.62.5c.11.09.22.09.54,0,.86,0,.85-.65.73-1.1.53-.29.52-.56.52-.83s0-.9.51-1.1.74-.56,1.38-.93c.31-.37.51-.92,1-1.11a1.07,1.07,0,0,0,.73-.92c0-.37.3-.73.63-.56.55.35.54,0,.53-.29a.83.83,0,0,1,.09-.54c.64-.29,1.06-.93,1.81-.95.75-.2.74-.74,1-1.29.73-.65,4.2-4.08,4.62-4.72l3.47-3.07c.64-.28.85-.56,1.28-.75a5.93,5.93,0,0,1,1.47-1.57,1.35,1.35,0,0,0,.63-.65l.73-.92A3.91,3.91,0,0,0,225,114.82Zm-44.19,9.81c-.22,0-.22-.18-.22-.36s0-.09.21-.09.22.08.22.08C181.06,124.44,181.06,124.62,180.85,124.63Zm19.93,6.22c-.11-.35,0-.63.63-.73Zm1.08.16h-.1c-.22-.17,0-.18.1-.27s0,.09.11.09C202,131,201.86,131,201.86,131Zm.36-3c-.1.09-.1.27-.42.1-.11,0-.11-.09,0-.36.32-.19.31-.46.63-.56C202.43,127.56,202.22,127.65,202.22,128Zm5.61-3.84c-.1,0-.43-.18-.11-.36-.11-.18.1-.19.21-.19.32,0,.32,0,.43.17S208.05,124.17,207.83,124.18Zm.2-5.35c.65.26.12.63,0,1A3,3,0,0,0,208,118.83Zm.52-.82c-.11-.27-.12-.36.2-.64,0,.36.44.44,0,.81C208.77,118.36,208.56,118.28,208.55,118Zm.19-1c0-.09.32-.19.32-.19.32-.19.54,0,.54.35A1.12,1.12,0,0,1,208.74,117Zm1,1.6c0,.09-.22.1-.43.1-.43,0-.43-.08-.55-.35.86,0,1-.47,1.06-.83a.72.72,0,0,1,.64-.38A2,2,0,0,0,209.75,118.61Zm2.42-2c0,.54-.63.64-1,.83-.11,0-.11,0-.11-.17.09-.46.73-.65.94-.93.11,0,.22,0,.22.09S212.17,116.66,212.17,116.66Zm-.92-2.79c0-.36.2-.45.2-.54.21-.37.21-.46.42-.38a.58.58,0,0,1,0,.46C211.89,113.77,211.57,113.59,211.25,113.87Zm1.66-2.66c-.11,0,0-.27,0-.36s.32-.19.54,0C213.33,110.93,213.34,111.29,212.91,111.21Zm.51-1.1a.32.32,0,0,1,0,.46h-.11A.36.36,0,0,1,213.42,110.11Zm.11,4.79c-.32,0-.32,0-.33-.17,0,0,0-.18.32-.19,0,0,.11,0,.11.18S213.64,114.9,213.53,114.9Zm3.33-9.57-.12-.18c0-.09.11-.09.11-.09h.21C217.07,105.14,217.07,105.32,216.86,105.33ZM198.55,100c0,.27-.2.36-.42.37-.1.18-.1,0-.11-.09.1-.27.1-.36.32-.37S198.55,99.88,198.55,100Zm-.14-1.45c-.21.28-.21.28-.42.38C197.88,98.54,198,98.53,198.41,98.52Zm-3.08,6.32c0,.09-.31.37-.63.38,0-.37.2-.55.31-.55S195.33,104.66,195.33,104.84Zm-.57-1.44-.22-.17h.33C195.19,103.39,194.87,103.4,194.76,103.4Zm.07-1.81a.61.61,0,0,1-.42.65C194.4,101.88,194.83,101.87,194.83,101.59Zm-1.28,5c0-.54.3-.73.94-1.2a1.21,1.21,0,0,1-.94,1.2c.11.09.11.27-.21.28C193.33,106.69,193.44,106.69,193.55,106.6ZM192,108.54c.1-.28.21-.37.42-.29.12.27,0,.37-.2.55s-.64.38-.73.83A1,1,0,0,1,192,108.54Zm-1.69,1.39c.22.09-.1.37-.09.64.11,0,.43.17.54.17,0-.18-.22-.36,0-.46s.44.27.66.44c-.22.1-.33,0-.65,0-.11.09,1,.61-.09.63a2.58,2.58,0,0,0-.75.29.9.9,0,0,1,.75-.29c-.33-.26-.76-.34-.45-.8h-.32A.59.59,0,0,1,190.29,109.93Zm-.83,1.11-.22.09a2.36,2.36,0,0,1-.86,0A2.32,2.32,0,0,1,189.46,111Zm-.08,1.36c0,.45-.2.45-.41.73A.77.77,0,0,1,189.38,112.4Zm-.68,2.91H189l-.73.83Zm-.55-.53c0,.18,0,.27-.32.28C187.82,114.78,187.93,114.78,188.15,114.78Zm-.64.55c.33,0-.19.82-.19.82a1.14,1.14,0,0,1-.54.11A3.66,3.66,0,0,1,187.51,115.33Zm-1.15,1.21c-.1.36,0,.72-.2.82s-.32.09-.32,0C185.83,117,186.15,116.9,186.36,116.54Zm-.08,1.27c0,.18-.21.27-.31.28s0-.19.1-.28Zm-1.34,2.29s0-.27.21-.28v.27l-.84.84C184.2,120.93,184.94,120.1,184.94,120.1Zm-.82,1.83a.94.94,0,0,1-.32.19c-.43-.17,0-.46-.34-.72C183.9,121.57,184.11,121.66,184.12,121.93Zm-1.1-1c.23.63-.09.72-.41,1A1.07,1.07,0,0,1,183,121Zm-1.88,2.39a.84.84,0,0,1,.31-.82C181.45,122.8,181.14,123.08,181.14,123.35Zm.92,2.52h-.21c0-.09.21,0,.21,0s0-.27.21-.28c.1-.18.1-.45.53-.46.1,0,.32.17.11.17C182.48,125.49,182.61,126.13,182.06,125.87Zm14.2-4.41c0,.18,0,.18-.32.19v-.54C196.25,121.1,196.37,121.28,196.26,121.46Zm1.78-2.12a.7.7,0,0,1-.2.55V120a.82.82,0,0,1-.1.36l-.22-.08c0-.18,0-.18.21-.37h.11C197.83,119.62,198,119.52,198,119.34Zm3.76-4.79c0-.55.2-.64.63-.74A6.53,6.53,0,0,0,201.8,114.55Zm5.68-5.56c.42-.28.42-.47.86,0Zm1.47-1.31a.46.46,0,0,1,.64-.37v.27A1.39,1.39,0,0,1,209,107.68Zm2.84-3.05c-.21.37.33.36.54.44,0,.27.22-.09.22.27,0,.09-.21.09-.42.1h-.54c0,.09-.1.19-.1.37,0,0,.22.26,0,.27s-.43,0-.55-.35c0-.09.21-.37-.22-.27s-.43,0-.64.29v.18c.66.26.34.62.35.9a.6.6,0,0,1-.31.46c-.43,0-.76-.08-.77-.44-.11-.09-.11-.36.21-.28.11,0,.33.18.32,0s-.21-.09-.21-.09a1.45,1.45,0,0,0-1,.3,18.18,18.18,0,0,1-2.74,2.68c-1.26,1.21-2.53,2.23-3.9,3.35a16.89,16.89,0,0,1-2.84,2.51c-1.27,1-2.32,2.23-3.37,3-.64.37-1.05,1.2-1.8,1.57a6,6,0,0,1-2.22,1.5l-.21.1c-.19,1.09-1.88,2.49-2.73,2.87-1.28.57-1.68,1.85-2.84,2.6-.43.1-.53.37-1.07.48a.4.4,0,0,0-.31.36c0,.28-.21.28-.43.29-.43-.17-.11-.27-.11-.45s.1-.28,0-.55c-.42.38-.74.29-1.5,0,1.07-.3,1.05-1.11,1.47-1.48.21-.37,0-.82.41-.92s.31-.28.21-.27c-.44-.45-.24-.72.08-.91-.53.1-.56-1-1.41-.51,0-.63.42-.64.85-.65a1.21,1.21,0,0,0,1.37-.94c0-.18,0-.27.11-.27a12.9,12.9,0,0,0,2.08-3c.2-.45.19-.91.5-1.28s-.11-.44-.12-.63a5,5,0,0,0,2-2.76v-.36c1.17-.57,1.36-1.75,2.2-2.76.1-.19-.12-.27-.13-.63.65.07.75-.29.95-.75a7,7,0,0,1,1.26-1.48l.94-1.28c.09-.55.62-1,.82-1.47s.64-.38,1-.66c.52-.73,1.37-1.11,1.89-1.76a13.68,13.68,0,0,0,1.78-1.94c.31-.64,1.06-.84,1.8-1.22,0,0,.11,0,.11-.18a6.71,6.71,0,0,1,2.43-1.87c1.17-.3,1.9-1.22,2.86-1.61,1.17-.48,2.34-1,3.31-1.34a7.8,7.8,0,0,1,3.53-.53c.54,0,.86,0,1.19.33.11.09.43,0,.54,0a3,3,0,0,1,1.95.4c.32,0,.32.18.43.17.76.26,1.09.43.56,1.08a40.18,40.18,0,0,1-2.59,4.13,1.12,1.12,0,0,1-.74.56c-.11,0-.32.1-.31.28-.2.64-1.06.84-1.37,1.57-.2.27-.64.1-.84.65,0,.09-.11.09-.1.36.11.09.32-.09.32-.09a7.74,7.74,0,0,1,1.16-.85c-.52.47-.18,1.55-1.36,1.57a.9.9,0,0,1-.65-.16A12.5,12.5,0,0,1,211.79,104.63Zm-7.51,19.18a7.94,7.94,0,0,1-1.45,2.38c.31-.37-.13-1,.61-1.28-.34-1,.61-1.55,1-2.46a11.06,11.06,0,0,1,1.13-2.2,1.2,1.2,0,0,0,.31-.46,1,1,0,0,1,1-1,1,1,0,0,1,0-1.27,4.09,4.09,0,0,0,1.36-1.93,1,1,0,0,1,.62-1,24,24,0,0,0,1.55-2.66c.51-1.1,1.35-2,2-3.12a13.57,13.57,0,0,0,1-1.74c0-.18.22-.19.43-.37a31.06,31.06,0,0,0,2.38-4,2.21,2.21,0,0,1,.73-.65c0-.09,0-.36.11-.09.32.08,0,.27,0,.36l-1.45,2.47c-.41.83-1,1.66-1.45,2.48-.72,1.1-1.35,1.84-2,2.85-.84,1.2-1.66,2.66-2.49,4A26.1,26.1,0,0,1,208,117.3a13.38,13.38,0,0,1-1.05,1.47,1.69,1.69,0,0,1-.41.91c-.31.28-.62.65-.62.92s-.31.55-.41.65A7.58,7.58,0,0,1,204.28,123.81Zm3.15-3.15c0,.45-.2.82-.85.47.1-.09.1-.46.2-.55s.21-.36.32-.37C207.42,120.21,207.43,120.57,207.43,120.66Zm-1.66,2.66c-.21.37-.53.46-.73,1l-.11-.18C204.92,123.7,205.23,123.42,205.77,123.32Zm-.68,3.18c0,.09,0,.09-.21.1,0-.09,0-.09-.12-.27.22-.19,0-.45.64-.56,0,0,0,.09.11.09C205.51,126.13,205.09,126.32,205.09,126.5Zm1.3.24a2.15,2.15,0,0,1-.63.74,2.18,2.18,0,0,1,.18-1.36,1.43,1.43,0,0,0,.84-.83c0-.18.11-.19.33,0s.21.08.22.35C206.91,126,206.92,126.37,206.39,126.74Zm.92-1.92c-.21,0-.43,0-.43-.17a.51.51,0,0,1,.42-.37c.11,0,.43,0,.44.26C207.74,124.63,207.42,124.82,207.31,124.82Zm13.61-6.56c.32-.37.42-.46.74-.47A1,1,0,0,1,220.92,118.26Zm1.67-2.21c0-.27.31-.46.64-.29C223,116,222.91,116,222.59,116.05Z"></path><path class="cls-1" d="M200,117.39s-.32,0-.32.1a.54.54,0,0,0,.54.26c0-.27.1-.36.1-.55A.69.69,0,0,0,200,117.39Z"></path><path class="cls-1" d="M203.23,115.78c0,.27-.42.46-.52.83-.11.09-.43.1-.42.46h.32a.82.82,0,0,0,.53-.37c0-.09.21-.19.1-.37s.1-.54.74-.56C203.54,115.41,203.32,115.24,203.23,115.78Z"></path><path class="cls-1" d="M263.17,98.9c.53-.19,1-.38.94-.92C263.58,98.08,263.37,98.45,263.17,98.9Z"></path><path class="cls-1" d="M260.14,102.87c-.64.1-.74.46-1.06.74C259.73,103.78,259.94,103.32,260.14,102.87Z"></path><path class="cls-1" d="M243.61,118.09c.22-.1.21-.28.1-.55a.3.3,0,0,0-.43.1c-.09.73-1.06.75-1.26,1.3a6.6,6.6,0,0,1,1.4.15C243.2,118.64,243.08,118.19,243.61,118.09Z"></path><path class="cls-1" d="M259.58,101.88c-.44-.44,0-.81-.13-1.17l-.42.82C258.83,101.9,259.15,101.8,259.58,101.88Z"></path><path class="cls-1" d="M260.88,102.12c-.43.1-.53.29-.32.46A.42.42,0,0,0,260.88,102.12Z"></path><path class="cls-1" d="M246.3,113.23l.32.17a6.79,6.79,0,0,1,1.27-1.11c.32-.19.53-.37.52-.65a.61.61,0,0,0-.12-.36l-.32.1A11.4,11.4,0,0,0,246.3,113.23Z"></path><path class="cls-1" d="M244.54,116.44c-.21.09-.1.27.23.36v.54c.1-.09.32-.19.32-.28.2-.28.2-.55-.12-.54C245,116.52,244.65,116.35,244.54,116.44Z"></path><path class="cls-1" d="M264.53,97.52c-.32.09-.53.19-.52.46C264.22,97.88,264.32,97.7,264.53,97.52Z"></path><path class="cls-1" d="M248.61,110.92c0,.09-.11.18-.1.27.21.08.32.08.32,0,.63-.65,1.38-.84,1.68-1.67a6.1,6.1,0,0,1-1.06.57C249.24,110.36,248.71,110.55,248.61,110.92Z"></path><path class="cls-1" d="M246,114c.32-.28.31-.46.2-.55-.33-.26-.54,0-.64.2-.62.83-1.69,1.4-2.31,2.14-1.27,1.2-2.64,2.32-4,3.53-.31.46-1.38.75-1.36,1.48.63-.56,1.59-.76,2.22-1.41a10.12,10.12,0,0,1,2.22-1.86c.84-.66,1.25-1.57,2.1-2A7.41,7.41,0,0,0,246,114Z"></path><path class="cls-1" d="M254.6,109.6a4.75,4.75,0,0,1,1.26-1.3c.1-.18.32-.28.2-.45s-.22-.45-.43-.36-.76,0-.64.38,0,.36-.21.28-.22-.09-.12-.36-.11-.45-.12-.54l-.63.47c-.32.18-.74.38-.52.64s.43.17,1,.25c0,.54-.52.83-.61,1.64C254.07,110.06,254.5,109.87,254.6,109.6Z"></path><path class="cls-1" d="M271.87,98.34l2.28-3.67a1.65,1.65,0,0,1,.09-.73,10.24,10.24,0,0,0,1.67-2.21c.2-.46.51-.92.4-1.28-.22,0-.33-.08-.33-.35,1,0,1.38-.39,1.57-1.48.32-.28.1-.46-.12-.63.32-.1.54.07.64-.2a33,33,0,0,0,2.18-3.49c.62-1,1.25-1.75,1.76-2.75s1.64-3.75,2.58-4.59c1.16-1.2,1.65-3.2,3.13-4a1.7,1.7,0,0,0,1-1.29c.21-.37.3-.92.51-1,1.18-.21,1.05-1.38,1.9-1.67.4-1.19,2-1.68,2.51-2.87a2.57,2.57,0,0,0,.17-2,2.44,2.44,0,0,0-2.4-1.57c-.11,0,.21-.28,0-.36a4.24,4.24,0,0,0-3-.75c-1,.21-.95.75-1.58,1.31a23.78,23.78,0,0,1-2,2.39,21.84,21.84,0,0,1-1.55,2.48c-.53.65-1,1.48-1.67,2.3l-4,6.43c-.62,1.19-2.59,4.4-3.31,5.6A42.63,42.63,0,0,1,271.79,86l-3,4.86c-.31.64-.63.83-1.39.58-.54-.08-.77-.71-1.2-.7-1.72-.14-3.14-1.19-4.87-1.51a6.82,6.82,0,0,0-2.91-.39,15.16,15.16,0,0,0-3.33.35,14.73,14.73,0,0,0-5.43,2.21c-.75.38-1,1-1.59,1.31a28.1,28.1,0,0,0-3.27,2.51c-1.89,1.86-3.58,3.35-5.26,5.1-.95.93-1.56,2.12-2.4,3a14.33,14.33,0,0,0-1.78,2.3c-.31.46-.84.74-.94,1.2a8.28,8.28,0,0,1-2,2.94c-.71,1.64-1.76,2.93-2.48,4.4-1,2.1-2.15,4.39-3,6.58-.61,1.55-1.54,3-2,4.57a4.68,4.68,0,0,1-.7,1.92,3.19,3.19,0,0,0-.62,1.19c0,.81-.07,1.63.7,2.24s1.12,2,2.52,2.12c.21,0,.21,0,.22.08a2.1,2.1,0,0,0,2.46-.33c.85-.65,1.15-1.56,2.22-2,.53-.28.94-1,1.36-1.3,1-.65,1.58-1.39,2.43-1.86l4.13-2.91c.63-.46,1.48-1,2.22-1.68a9.63,9.63,0,0,1,1.79-1.58,14.44,14.44,0,0,0,2.63-2.32c1.48-1.48,2.84-3,4-4.16a9.87,9.87,0,0,0,2.21-2.32c.1-.27.31-.46.84-.74s.42-.64.73-1.19c-.42.46-1.41-.15-1.71.49l.21.08c.11,0,.31-.55.54-.1.33.26.12.45-.2.55a2.14,2.14,0,0,1-1.06.75c-.21.36-.31.55-.85.38s-.44-.08-.54.19c-.1.1.12.36-.09.37-.86,0-.74.65-1.38,1.11a.55.55,0,0,0-.3.83c.11.17-.21.36-.21.36a2.39,2.39,0,0,0-1.7.95h-.32a7.86,7.86,0,0,0-.74.47,7.67,7.67,0,0,1-2.32,2c-.41.73-1.15,1.11-1.7.76a1.7,1.7,0,0,0-1.61.31,5.36,5.36,0,0,1-2.43,1.69c-.32,0-.43.28-.54.1-.32-.26-.11-.27.1-.45s.32-.19.1-.46c0-.18-.33-.08-.43.1a14.11,14.11,0,0,0-2.21,2c-.85.66-1.37,1.39-2,2-.1.18-.53.37-.54.1a2,2,0,0,1,.19-1.36l.91-2.37a27.67,27.67,0,0,1,1.12-2.74,43.77,43.77,0,0,0,2.59-4.13c1-1.84,2.18-3.4,3.22-5.05a24.23,24.23,0,0,1,2.5-3.14,16.23,16.23,0,0,1,1.05-1.29c.95-.75,1.57-1.76,2.63-2.51.74-.46,1.15-1.29,1.89-1.94a13.2,13.2,0,0,0,3.07-2,17.87,17.87,0,0,1,4.25-2.09,5.19,5.19,0,0,1,.75-.38c1.39-.3,2.45-.87,3.84-1.09s2.9-.43,4.53.35c-.1.27-.53.38-.74.56-.09.55-.74.47-.84.92-.41.92-1.91,1.23-2.09,2.41-.86.2-.95.92-1.58,1.39,1,.34,1.59-.58,2.57-.51,0,0,.1-.28,0-.27-.32,0-.11-.09-.11-.18,0-.63.52-.65.84-.93A18.85,18.85,0,0,0,264,97.08c.51-.83,1.91-.86,2.32-1.78a4.93,4.93,0,0,1-.82,1.83,7.83,7.83,0,0,1-1.24,2.29c-1.24,2-2,4.3-3.18,6.5a35.52,35.52,0,0,1-1.94,4.12c-.63.64-.5,1.64-.92,2.19a20,20,0,0,0-.8,2.37,37.57,37.57,0,0,1-2.75,6.85,23.37,23.37,0,0,0-1.8,5.74,29.07,29.07,0,0,0-.79,3.09c-.1.28-.19.91.14,1.18,1,.34,1.1,1.15,1.54,1.59.33.26.34.71.67,1s.45.71,1,.34h.1a.94.94,0,0,0,1.3.24c1.07-.12,2.23-1.23,1.78-2a6.32,6.32,0,0,1-.05-2,15.54,15.54,0,0,1,1-3.64c.31-.82.39-1.72.7-2.55.62-1,.81-2.19,1.32-3.19.41-.83.71-1.65,1-2.47l2-4.84c.2-.82.61-1.55.39-2.09-.24-.72.09-.64.41-.83s.74-.38.63-.55c-.23-.45.2-.73.29-1.28.62-1.1,1.13-2.19,1.65-3.29.72-1,.8-2.28,1.75-3.12a5.12,5.12,0,0,0,1.34-2.29c.42-.74.95-1.11.61-1.92C271.54,98.35,271.76,98.34,271.87,98.34Zm-41.25,25.3c0,.09-.1.18-.32.19,0-.18.1-.37.21-.37C230.61,123.28,230.83,123.45,230.62,123.64Zm2.07-3.49a8.93,8.93,0,0,1-.62,1h-.21a3.27,3.27,0,0,0-.87-.25c-.11,0-.11-.09-.11-.09l.21-.19c.76.26,1.18.07,1.17-.57a.92.92,0,0,1,.32-.09C232.79,120,232.69,120.15,232.69,120.15Zm.2-.54c-.11-.36-.12-.54.31-.82A.82.82,0,0,1,232.89,119.61Zm1.45-2.66c-.23-.36,0-.45.2-.55A.7.7,0,0,1,234.34,117Zm.15-2.72c0-.45,0-.45.3-1A.69.69,0,0,1,234.49,114.23Zm2-1.22c0-.36.1-.46.31-.55C236.93,112.73,236.71,112.82,236.5,113Zm3-6.49c.22,0,.43,0,.22.17v.09c-.1.1-.1.1-.43-.08C239.26,106.61,239.58,106.51,239.47,106.52Zm.27,2.34c0,.09-.21.19-.32.19a.13.13,0,0,1-.22-.08c0-.19.21-.28.32-.28S239.84,108.68,239.74,108.86Zm.41-1.09a1.77,1.77,0,0,1,1.26-.94A2.13,2.13,0,0,1,240.15,107.77Zm33.32-14.26c-.1.18-.21.18-.42.28l-.33-.27c0-.18,0-.27.32-.28.53-.1-.13-.72.62-.82C273.56,92.78,273.57,93.23,273.47,93.51Zm2.36-5.13a5,5,0,0,0,.84-.65c.33.08.23.36.23.45a1.31,1.31,0,0,1-.63.65c0,.09-.43.19-.54-.08S275.72,88.48,275.83,88.38Zm-1.39-4.21c.31-.28.3-.65.84-.75a3.9,3.9,0,0,0-.41,1c-.1.18-.21.18-.32.09S274.44,84.26,274.44,84.17Zm0,4.52a2.32,2.32,0,0,1,.94-1.11h.11a8,8,0,0,0-.73,1.28c0,.09,0,.27-.32.19A.24.24,0,0,1,274.44,88.69Zm.35,1.26c0-.18.42-.46.64-.29a.52.52,0,0,1,.12.81c-.74.2-.94.93-1.68,1.49A10.9,10.9,0,0,0,274.79,90Zm-1-4.87c.11-.09.22,0,.33.09a3.71,3.71,0,0,1-.62,1s-.22-.09-.22-.18C273.51,85.73,273.61,85.36,273.81,85.08Zm-.61,1.29a1,1,0,0,1-.19,1c-.11.09-.22,0-.33-.09C272.57,87,273,86.82,273.2,86.37Zm-.5,6.34c.11.18-.09.45-.42.46s-.11-.18,0-.36a2,2,0,0,1,.41-1,2.5,2.5,0,0,0-.75.1c.1-.27.1-.27.75-.1S272.69,92.35,272.7,92.71Zm-2.08-1.58c-.09.45-.19.82-.62.83C270.09,91.5,270.31,91.41,270.62,91.13Zm-.82,6.17a1.43,1.43,0,0,1-1,1.65A13.64,13.64,0,0,1,269.8,97.3Zm-1.56,2.48c.11,0,.22,0,.22.09s-.1.27-.1.45-.21.19-.31.19l.09-.37C268.14,99.87,268.14,99.78,268.24,99.78Zm-5.38,4.29A5.87,5.87,0,0,0,264,102c.31-.55.3-1.09.72-1.55a20.59,20.59,0,0,0,1.46-1.76c.2-.73.73-1.28.92-2,.1-.54.42-.55.74-.74.23.63-.41,1-.5,1.46a46.92,46.92,0,0,1-3.09,6c-.31.55-.94,1.11-.71,1.83.12.36-.74.65-1.28.39A2.52,2.52,0,0,1,262.86,104.07Zm4-2.72-.33-.17a.12.12,0,0,1,0-.18A.32.32,0,0,1,266.88,101.35Zm-2.3,2.86c-.1.18.12.27-.09.54-.11.1.12.45-.1.55,0,0-.1,0-.11-.09-.22-.18,0-.45,0-.63l.31-.37c.2-.55.19-1.27.83-1.47C265.74,103.1,265.12,104.11,264.58,104.21Zm.39,2.52c-.11.28-.1.37-.43.37l-.11-.08a.48.48,0,0,1,.21-.46L265,106C265.28,106.45,265.07,106.55,265,106.73Zm.82-1.46c-.32,0-.22-.18-.33-.36C265.67,104.73,265.89,104.72,265.79,105.27ZM256.86,119c.33.09.33.09.33.27s0,.45-.42.46c-.21,0-.64,0-.54-.26S256.54,118.87,256.86,119Zm-1.91,5.3c.07-1.54,1.22-2.75,1.4-4.11C256.8,120.76,255.79,123.59,255,124.34Zm1.65,1.86c.11-.19.32-.1.54,0A.41.41,0,0,1,256.6,126.2Zm.19-1.18a.61.61,0,0,1-.33-.18c-.11-.17,0-.27.21-.27s.65.07.65.25S257,125,256.79,125Zm-.37-1.89c0-1.18.41-1.19,1.17-.66C257.27,122.65,256.62,122.49,256.42,123.13Zm.86-4.91c-.23-.36-.13-.72.51-1A1.91,1.91,0,0,1,257.28,118.22Zm.73,3.69c-.11,0-.22,0-.22-.08s.1-.19.21-.19.22,0,.22.09S258.12,121.91,258,121.91Zm-.06-2.53.1-.09c.21-.19.22.08.33.26C258.27,119.46,258.06,119.65,258,119.38Zm.25-2.81c0,.09,0,.27-.2.28s-.33,0-.33-.18c-.22-.17-.22-.35.1-.36.21-.19.31-.37.09-.64-.23-.53.84-.92.5-1.46,0-.09.11-.18.32-.18a1.67,1.67,0,0,0,.51-1.46.51.51,0,0,1,.31-.55c.42-.37.52-.65.51-.83-.34-1,.4-1.64.82-2.1.21-.09.21-.09.2-.28,0-1,.72-1.73,1.13-2.65.1-.09.21-.18.32-.09s.22.26,0,.36a22.47,22.47,0,0,0-1.32,3.38,21.79,21.79,0,0,0-1.93,4.48A8.05,8.05,0,0,1,258.2,116.57Zm3.89-4.07-.1.18c-.11,0-.11-.09-.22-.08l.21-.28C262.19,112.32,262.09,112.41,262.09,112.5Zm-1.6.58c-.22-.09-.23-.45-.23-.54a1.56,1.56,0,0,1,1-.47c.12.45-.21.45-.42.64C260.92,113,260.82,113.25,260.49,113.08Zm.18,3s-.44-.08-.33-.26,0-.45,0-.45c.64,0,.64.07.65.25S261.1,116.05,260.67,116.06Zm.44-4.17c-.12-.18-.44-.26-.12-.27a.49.49,0,0,1,.22-.1s.1,0,.1.09Zm-1.7,10.17c-.11,0-.22,0-.22-.08a.78.78,0,0,1,.2-.64C259.4,121.52,259.73,121.87,259.41,122.06ZM261,118.4c-.09.46-.3.92-.39,1.46a.32.32,0,0,1-.32.28c-.32,0-.54-.08-.44-.35a3.66,3.66,0,0,1,.5-1.64c0-.09.11-.19.32-.1S261.15,118.22,261,118.4Zm.81-2.1a.43.43,0,0,1-.43-.26c.1-.27.2-.45.53-.46s.32.08.21.17C262.28,115.93,262.07,116.21,261.85,116.3Zm1.53-3.74c-.09.54-.41.91-.39,1.55.11.27-.2.54-.42.64-.43.1-.55-.44-.87-.52h-.11c-.21.09-.2.64-.74.47s0-.72.51-1c.32-.46.64-.28.86,0,.21-.27.85-.56.51-1.19,0-.18.11-.27.32-.36a.61.61,0,0,1,.43.07C263.7,112.37,263.38,112.47,263.38,112.56Zm-.07-2.8c.11-.19.22-.1.22.08.12.36-.2.46-.52.74C262.89,110.13,263,109.94,263.31,109.76Zm-.37-2.08a1.12,1.12,0,0,1,.63-.91C263.36,107,263.36,107.31,262.94,107.68Zm.93-1.83c.32,0,.22.09.22.09s.11.09-.22.09l-.21-.08A.4.4,0,0,1,263.87,105.85Zm.44,5c0,.09-.21.18-.32.1-.22-.27-.34-.45.09-.64C264.19,110.46,264.52,110.54,264.31,110.82Zm6.48-12.37a3.85,3.85,0,0,0-1.23,2.29,1.47,1.47,0,0,1-.73,1.11,1.92,1.92,0,0,0-.41.91c0,.54-.52.92-1.27.66-.11.19,0,.37,0,.55.45.71.24,1.17-.5,1.73a.31.31,0,0,0-.1.18c.44.44-.2.73-.41,1.1a3.88,3.88,0,0,0-.5,1.55c.23.44-.63.46-.94,1,.09-.72.08-1.17-.47-1.61-.33-.36.2-.64.52-.65.86.07,1.07-.21,1.17-.84a1.85,1.85,0,0,1,.52-.74.58.58,0,0,0,.08-.81v-.18c.1-.37.3-.92-.35-1.17a.45.45,0,0,1,.1-.28c.31-.55.73-1.19,1.25-1.93.11.36.12.64.34.72.64-.2.63-.65.72-1.19.19-1.09,1-1.75,1.66-2.85.1-.27.32,0,.43,0a1.14,1.14,0,0,1,.54.26C271.22,98.35,270.9,98.36,270.79,98.45Zm.62-5.89-.22-.27.2-.27c.12.27.12.36.23.35S271.62,92.55,271.41,92.56Zm-.07-2.89a2.14,2.14,0,0,1,.83-1.47.38.38,0,0,1,.43,0c.11.18,0,.09-.11.27Z"></path><path class="cls-1" d="M253.13,106.38l-1.68,1.85c-.11.09,0,.27.11.35l2.1-2.4A.8.8,0,0,0,253.13,106.38Z"></path><path class="cls-1" d="M252.86,109a.45.45,0,0,0,.22-.1c-.11,0-.11-.09-.33-.08l-.1.09C252.65,109,252.65,109,252.86,109Z"></path><path class="cls-1" d="M256.31,104.58c-.21.1-.43,0-.42.37C256.22,105.13,256.32,104.85,256.31,104.58Z"></path><path class="cls-1" d="M259,102.44s0,.09.22.09c0,0,.1.08.21-.1a1.41,1.41,0,0,1-.33-.08C258.94,102.26,259,102.35,259,102.44Z"></path><path class="cls-1" d="M255.82,106.77c.22,0,.65.07.34.53-.11.09,0,.18,0,.27.22.09.33.08.43,0,.31-.64,1.38-1.12.93-1.74-.11-.18,0-.54.21-.46.65.26.42-.46.19-.81,0,0,.21-.19.32-.19v-.18c.1-.1.65.16.53-.2s-.43,0-.65-.07-.11-.09-.21-.09c.1-.36.52-.55.51-.82a3.86,3.86,0,0,0-1.69,1.12c.43-.19,1-.29,1.08.43a4.88,4.88,0,0,0-2.74,2C255.28,106.6,255.5,106.77,255.82,106.77Z"></path><path class="cls-1" d="M308.37,77.49a.55.55,0,0,0,.53-.38,3.73,3.73,0,0,1,2-1.85c0,.54-.41.82-.29,1.36a.66.66,0,0,1,.32-.1c.11-.09.11-.18.21-.18.73-1,1.25-2.11,2.74-2.42.22,0,.32-.1.32-.28a1.56,1.56,0,0,1,.63-.46c.53-.47,1.6-.58,1.91-1.13.62-1.1,2-1.68,2.74-2.69.2-.64.95-.84,1.36-1.48a5.78,5.78,0,0,1,2.42-2.41c1.16-.84,1.24-1.93,1.65-3.11.1-.1-.12-.27-.23-.45a4.16,4.16,0,0,1-1-1,1.7,1.7,0,0,0-1.09-.52c-.43,0-1.39.48-1.73-.32h-.1a4.68,4.68,0,0,1-2.7-.3c-.75,0-1.61.13-1.92.77l-.92,2c-1,2-2.27,4-3.19,6.14a47,47,0,0,0-2.56,5.67c0,.18.13.72,0,.81C308.77,75.85,309,76.75,308.37,77.49Z"></path><path class="cls-1" d="M283.11,110l.52-.83a.6.6,0,0,0-.43.19C283.1,109.56,283.21,109.83,283.11,110Z"></path><path class="cls-1" d="M305.87,117.17s0,.18.11.18a.77.77,0,0,0,.31-.55C306.08,117,306,117,305.87,117.17Z"></path><path class="cls-1" d="M304.62,119.1a1,1,0,0,0,.41-.73C304.72,118.65,304.5,118.83,304.62,119.1Z"></path><path class="cls-1" d="M388.17,100.13c-.11,0-.43,0-.42.19s.11.27.44.44c.11,0,.21-.18.31-.36S388.39,100.13,388.17,100.13Z"></path><path class="cls-1" d="M421.72,90.16s-6.81-.19-9.89-.22c-3.07-.38-10.32-.33-16.19-1.12-1.71-.24-3.16-.46-4.41-.69a7.79,7.79,0,0,0-1.48-.27c-1.32-.26-2.43-.51-3.43-.75-2.4-.56-5.2-1.2-7.64-.84a3.26,3.26,0,0,0-1.83.66c-1.07,1-.27,2.94,1,3.61s2.85.56,4.3.77,3.06,1,3.33,2.42c.09.51,0,1,.09,1.57a1.39,1.39,0,0,0,.06.19c-.65,2-1.18,3.82-1.45,4.63-.81,2.1-1.12,2.4-2.69,6.12.23.62-.9,2-1.42,2.68-1.47,1.75-2.71,3.68-4.17,5.52A59,59,0,0,1,365,125.19c-2.33,1.59-5.21,2.48-7.87,3.53-.65.11-1.5.4-1.84-.41-.46-1.25-.92-2.6-.2-4,.52-.74-.58-1.53-.38-2.34.71-1.92,1.08-4.46,2.11-6.3l4-7.33c.08-.13.14-.21.18-.29h0c.1-.09.1-.09.1-.18l1.47-1.84c.42-.47.72-1,1.14-1.48,1.68-2,1-2,2.61-4.1.63-.74,3-1.15,3.29-2.06.19-.64.73-.93,1.36-1.3a2.37,2.37,0,0,0,1.48-1,1.17,1.17,0,0,1,1.18-.48c.54.26,1.18.06,1.3.69s.67,1,1.52.42a2.65,2.65,0,0,1,1.48-.94c1-.39,1.05-1,.39-1.73,0-.09-.22-.18-.33-.44-.57-1.35-1-1.61-2.61-1.3-.22,0-.43.1-.43,0-.67-1-1.73-.41-2.7-.39a16,16,0,0,0-9.18,2.93,8.74,8.74,0,0,0-3,2.75c-2.53,2.41-2,1.07-4,4-.73.92-1.79,1.58-2.2,2.76-.28,1.64-1.43,3-2,4.57a17.35,17.35,0,0,0-1.13,3,1,1,0,0,0-.19.45.59.59,0,0,0,0,.14c-.18.64-.37,1.28-.59,1.91a3.53,3.53,0,0,1-.57-.3c-.11-.27-.33-.27-.43-.08-.42.64-1.27.93-4.83,4.91,0,.18-.1.63-.31.73a7,7,0,0,0-2.11,1.58,41.36,41.36,0,0,0-3.17,2.7c-.42.37-1.16.75-1,1.2a1.65,1.65,0,0,1-.63,1c-1.16.66-2.44,1.14-3.5,1.89-.74.47-2,0-2.78.7-.1.19-.54,0-.65-.07.21-.46-.24-1,.29-1.46a1.92,1.92,0,0,0,.41-.91c.31-.64.18-1.45.92-1.83,0,0,.11-.1.11-.19.3-.82.82-1.73,1.12-2.56.21-.45.94-1,.29-1.63,0-.09-.23-.54.41-.55.54.16.75-.29.85-.66s.09-.72.19-1c-.11,0-.21.1-.43,0a.28.28,0,0,1,.43,0l.95-.83c.31-.28.63-.38.62-1-.33-.27.2-.64.41-.83s.85-.29.41-.82a.11.11,0,0,1,0-.18c.64-.2.74-.56.5-1.28a.42.42,0,0,1,.22-.09c.63-.38.84-.93,1.36-1.39.21-.28.42-.74.3-.91-.12-.54,0-.55.31-.65s.53-.37.63-.73a7.54,7.54,0,0,0,.84-1c.52-.55,1.48-.94,1-1.92v-.18c.75-.2.84-.84,1.26-1.3,1.36-1.66,2.62-3.23,3.87-4.89.42-.46.51-1.09,1-1.47a13,13,0,0,0,1.77-2.21c.84-1,1.46-2.21,2.29-3.22.11-.09.11-.18.1-.36,0-1.27-1-2-2.2-2.39a6.15,6.15,0,0,1-2-1.22,1.83,1.83,0,0,0-2.7-.48,6.65,6.65,0,0,1-2.12,1c-1.61.4-2.77,1.42-4.16,1.82s-2,1.58-3.39,1.89c-.54.1-.64.55-1.06.65a34.28,34.28,0,0,0-5.71,4.21c-1.79,1.58-3.47,3.34-5.15,5-2.11,2-4,4-6.21,5.94-.84.83-1.57,1.76-2.41,2.59a9.63,9.63,0,0,1,.91-2.1c.53-.74.5-1.64,1.13-2.38.32-.28,2.52-2.77,3-3.24a14.77,14.77,0,0,0,1.13-2.29,34.75,34.75,0,0,0,1.75-3.38,23,23,0,0,0,1.33-2.84c.11,0,.11,0,.11-.09a12.5,12.5,0,0,1,.51-1.19,14.09,14.09,0,0,1,.5-1.64,2.33,2.33,0,0,0-.25-1.35,2.35,2.35,0,0,0-1.31-.88c-.76-.34-1.51-.41-2.17-.67a15.26,15.26,0,0,1-2-1,3.69,3.69,0,0,0-3.23-.19c-.73,1-.05,2.26.48,2.16a.36.36,0,0,1,.43-.11c.33.09.22.27,0,.37-.38,2.09-1.52,3.92-2,6-.52.92-1,1.75-1.44,2.66a18.28,18.28,0,0,1-2.27,4.13,24.38,24.38,0,0,1-2.73,2.86c-.63.74-.82,1.83-1.55,2.66-.21.37-.2.73-.62,1-.11.1-.22.19-.21.37-.19,1.27-1.13,2.11-1.75,3.21-.31.82-.72,1.55-1,2.28a20.15,20.15,0,0,1-1.19,2,.45.45,0,0,1-.38-.14c-.33-.35.1-.55.31-.82l.32-.1c.2-.37.63-.56.73-.92-.11-.09-.32.1-.53.19a30.67,30.67,0,0,0-2.64,2.42c-1.58,1-2.42,1.95-4,2.89s-3.27,2.43-4.76,3.37a30.5,30.5,0,0,0-3.18,1.89c-1.6.67-2.86,1.6-4.57,2.37-1.16.66-2.77,1.06-4.05,1.63,0-.09.11-.18.11-.28a3,3,0,0,0,0-2.53c-.11-.09-.32-.17-.33-.35.21-.19.32-.1.43-.1a.69.69,0,0,0,1-.39,6.44,6.44,0,0,1,.51-1.28,5.94,5.94,0,0,1,1.13-1.92c.31-.73.83-1.38.49-2.19a1,1,0,0,0,.72-1.28c0-.09.22-.09.32-.1.54-.28.41-.91.41-1.18,0-.73.19-1,1.05-.93.32-.1.32-.28.53-.47a10.59,10.59,0,0,1,1.66-2.3,4.66,4.66,0,0,0,.61-1.82.84.84,0,0,1-.32.1c-.11.09-.21.36-.54.19s0-.36.21-.55a4.3,4.3,0,0,1,.51-1c.21-.37-.23-.81.41-1-.44-.17-1-.07-1-.61-.31.19-.75,0-1,.39a.41.41,0,0,1,.33.08v.09c-.21.09-.22-.09-.33-.17a1,1,0,0,1-.32-.09c-.55-.35-.86-.16-1.07.3a1,1,0,0,1-.84.65,7.26,7.26,0,0,1,1.24-1.84c.43-.37.44.26.66.53.32-.28.74-.74,1.28-.48,0,.18-.1.36,0,.54a3,3,0,0,1,1.28-.66c-1.06.84.23.63.13,1.08.31-.46.41-.82,1.06-.66-.66-.62-.55-.8.2-.82,0-.09.11,0,.1-.09h-.1c0-.18-.23-.44-.23-.62.2-.37,0-.46-.34-.54a.77.77,0,0,1-.3.91c-.33-.08-.21.19-.21.28a.64.64,0,0,1-.42.19c-.11-.09,0-.27,0-.36.1-.28.09-.46-.34-.54a1.34,1.34,0,0,1-.44-.26c-.1-.09-.11-.27.1-.45s.32,0,.43.08a3.11,3.11,0,0,0,.55.53c.22-.19.32-.46.64-.38v-.18c.43.08,1-.11,1.29.06.54.17.53-.1.74-.38s.1-.64.53-.65.42-.37,0-.81c.65.26.75,0,1-.2.63-.56.72-1.38,1.46-1.94.53-.28.52-.82.94-1.1a12.16,12.16,0,0,0,1.25-1.84,2.21,2.21,0,0,1,.83-1.29c.31-.28.52-.64.84-.92.63-.47.83-1.29,1.35-1.84.95-.75.22,0,1.17-.85l2.84-2.78a3.81,3.81,0,0,0,1.44-2.65c.09-.64-.9-1.7-1.67-2.14s-2.15-.31-3-.83c-.54-.35-1.08-.15-1.62-.23-1.51-.33-3.11,0-3.52,1.26a4,4,0,0,1-1.76,2.57l-.1.27a8.25,8.25,0,0,1-1.24,2.3c-.52.82-1.15,1.56-1.77,2.48-.4,1.18.12.54-.72,1.46-.63.74-.29,1.46-1.13,2.11-1.27.93-1.67,2.3-2.83,3.23l-2.88,5.59c.11.09,0,.27.12.36a2.24,2.24,0,0,1-.41,1.18c-.42.47-.73.93-1,1.29l-2.68,5c-.62,1.28-1.45,2.48-2.07,3.76a5.06,5.06,0,0,0-1,1.47,9.06,9.06,0,0,1-1.11,3.1,14.61,14.61,0,0,0-.81,1.83,7.74,7.74,0,0,1-1,2.38l-.41.91a1.1,1.1,0,0,0,.89,1.34.66.66,0,0,1,.55.44,1.34,1.34,0,0,0,.56.89c0,.27-.65.1-.53.46.12.63.45.9,1.2,1a3.45,3.45,0,0,1,.76.16,2.71,2.71,0,0,0,2.37-.05,38.89,38.89,0,0,0,3.73-1.45c1.7-.76,3.5-1.8,5.2-2.74a15.06,15.06,0,0,1,3.4-2,7.65,7.65,0,0,0,1.69-1.31c.95-.56,2.64-1.87,3.49-2.52a20.15,20.15,0,0,1,2.21-1.77,24.08,24.08,0,0,0,2.7-2.35c-.76,1.12-1.44,2.11-1.72,2.51a18.38,18.38,0,0,1-2.39,3.76,2.69,2.69,0,0,0,.38,2.52c.55.53,1.09.7,1.53,1.15a2.93,2.93,0,0,0,2.5,1c.54,0,.86-.2,1.4,0,.21-.28.53-.47.74-.74a35.12,35.12,0,0,0,2.27-3.76c.32-.46.52-1.1.83-1.47.85-.47,3.86-4.89,4.6-5.45s1.58-1.57,2.53-2.23c.95-.92,2-2.67,2.93-3.5,1.47-1.58,3.27-3,4.95-4.55,1.79-1.76,3.26-3,5.05-4.73a29.69,29.69,0,0,0,2.31-2.59l1.67-2.21c1.15-1.21,2.53-2.14,3.68-3.35.43-.28,1-.47.62-1.1a.4.4,0,0,1,.2-.54l.85-.57a16.52,16.52,0,0,1,1.59-.94c.22-.09.43-.19.54,0s-.1.27-.21.37c-.42.37-.85.47-1.27.84-.21.1-.53.19-.31.55.32-.19.53-.46.85-.47,1.07-.39,1.59-1.21,2.65-1.6.22-.1.1-.28,0-.54-.11,0-.21,0-.21.09a.34.34,0,0,1-.54.1.09.09,0,0,1-.11-.08c.1-.28.21-.28.42-.38.54-.1,1-.11,1.18-.39a3.85,3.85,0,0,1,2.44-1.41c-.22-.08-.11-.09,0-.18a6.5,6.5,0,0,1,1.18-.48c0,.45-.31.64-.63.83-1.24,2.11-2.81,4-4.05,6.06-1.66,2.49-3.65,4.79-5,7.36,0,.09-.11.18-.21.28a5.85,5.85,0,0,0-1.66,2.48,7.34,7.34,0,0,1-1.55,2.75,13.71,13.71,0,0,0-1.66,2.57,13.92,13.92,0,0,1-.62,1.37A3.27,3.27,0,0,0,328,115.3c-.5,1.91-1.86,3.3-2.68,5.12-.2.55-1.05.93-.39,1.73.11,0,0,.09-.1.09a4.83,4.83,0,0,0-.8,2.65,2.58,2.58,0,0,0,.38,2.61c.45.71,1.11,1.24,1.66,2a5.81,5.81,0,0,0,1.87,1.59,6,6,0,0,0,2.93,1.1,14.3,14.3,0,0,1,1.83.23c1,.16,1.62.33,2.36-.41.1-.1.32-.1.53-.11a7.05,7.05,0,0,0,3-1.6,8,8,0,0,1,1.79-1.4c.64-.29,1.5-.49,1.91-1s1.27-1.12,1.79-1.67c.43-.29,3.89-3.8,3.88-4.17a3.85,3.85,0,0,1,.51-.54,7,7,0,0,0,.34,4.32c1.47,3.32,3.37,6.08,8,7,.87.16,1.72,0,2.8.21a5,5,0,0,0,3-.43,27.2,27.2,0,0,1,2.55-1.51c2.14-.59,3.61-2.08,5.08-3.65s3.15-3,4.62-4.45c.53-.46,1.17-.75,1.26-1.3a38.46,38.46,0,0,1,3.74-5.6,42.85,42.85,0,0,0,3.85-5.7c.31-.64,3.21-5.5,3.41-5.87.72-1.46,0-2.26.56-3.72.1-.28-.23-.54,0-.73,1.28-.66,2.73-3.14,3.13-4.14,1.18-.3.62-1.37,1.36-1.84.1-.28-.23-.36-.55-.35s-1.06.48-1.18-.06.85-.2,1.17-.3.64-.2.75-.29a.8.8,0,0,0,.16-.08c2.24.84,4.44.31,6.62.54,3.5.42.67,0,5.12,0C413.74,94.32,428.06,90.9,421.72,90.16Zm-50.8,4a.42.42,0,0,1,.22.09v.18a.39.39,0,0,0-.32-.08C370.71,94.22,370.82,94.13,370.92,94.12ZM287.2,114.71c.32,0,.33.18.33.36a.42.42,0,0,1-.31.37c-.33,0-.22-.18-.12-.36S286.88,114.72,287.2,114.71Zm6.33-9.64c.33,0,.34.35.34.44s0,.45-.21.37-.44-.26-.44-.44S293.21,105,293.53,105.07Zm-1.9,1.13H292c0,.09-.11.18-.21.19s-.22.09-.33-.09S291.52,106.2,291.63,106.2Zm-.66-.26a.23.23,0,0,1,.32-.19c0,.27,0,.36-.2.37S290.87,106,291,105.94Zm-1.16.93c.21-.27.76.17,1-.11.11,0,.22.09.11.27s0,.45-.42.37c-.11-.09-.22-.09-.21,0-.21.54-.43.19-.54,0C289.39,107.15,289.71,107,289.81,106.87Zm-5.1,11.79a1.45,1.45,0,0,1-1.06.75v.09c.11.18.64,0,.43.35,0,.27-.08.91-.73.83-.43.11-.86,0-1,.48,0,.27-.53.28-.85.2.63-.47,1.05-1.11,2.12-1.14-1-.06-.77-.7-.67-1a2.37,2.37,0,0,1,1.16-1.21c.1-.09.43,0,.43.17S284.82,118.57,284.71,118.66Zm-2.8,0,.22.08c.12.27-.1.46-.41.74C281.71,119.09,281.6,118.83,281.91,118.64Zm4.06-5.89c.21-.09.33.09.33.27s-.21.36-.52.64a.32.32,0,0,1-.33-.35C285.44,113,285.76,112.85,286,112.75Zm2.08-3.12c-.33-.08-.11-.27,0-.45a.35.35,0,0,0,.1-.19c.11-.09.11-.09.1-.18h.11v.27C288.25,109.26,288.37,109.62,288.05,109.63Zm-.47-1.62c.21-.18.09-.72.63-.83.1,0,.21-.18.43,0a8.52,8.52,0,0,1-.95,1.11,1,1,0,0,0-.4.91c-.11.19-.21.19-.43.19s-.22-.17-.11-.26C287,108.75,287.05,108.29,287.58,108Zm-.55-.53c-.1.09-.1.18-.21.19s-.11-.09-.22-.18a.37.37,0,0,0,.21-.09C286.92,107.39,287,107.39,287,107.48Zm-.27-2.44c-.1.37-.1.55-.53.47C286.33,105.24,286.33,105,286.76,105Zm-.35,3.36c.11.27-.21.28-.32.28a.74.74,0,0,1-.41.73.77.77,0,0,1,.41-.73C286.09,108.59,286.08,108.32,286.41,108.4Zm-.71-2.61a1.05,1.05,0,0,1,.43.08c0,.27-.2.46-.41.65C285.82,106.24,285.17,106.08,285.7,105.79Zm-1.86,3.12a12,12,0,0,1,1.35-1.75c0-.09,0-.09.11,0s.22.08.11.18v.27c-.53.46-1.06.84-1.15,1.38,0,.09-.1.28-.21.19S283.73,109,283.84,108.91Zm1.06,4.23a1.3,1.3,0,0,1-.64.1c.45.63,0,.82-.4,1a1.26,1.26,0,0,1,.4-1l.63-.82C285.11,112.77,284.79,113,284.9,113.14Zm-.58-2.07a.37.37,0,0,1,.43-.1c.11.09.22.27.11.36a7.83,7.83,0,0,0-1.14,1.66c0,.09-.11.09-.11.09-.21,0-.22-.18-.22-.27A4,4,0,0,0,284.32,111.07ZM282.71,116c0-.28,0-.55.42-.65-.1.28-.1.46-.42.65.12.35,0,.63-.41.64C282.18,116.28,282.61,116.27,282.71,116Zm-.65-.53c-.1.36-.2.82-.84.92A1,1,0,0,1,282.06,115.47Zm-.8,2.73c.1-.18.21-.37.53-.19.65.25.86-.11,1-.57a2.36,2.36,0,0,1,.51-1,4.61,4.61,0,0,0,1.35-1.93l.11-.09a.74.74,0,0,1,.64-.38.64.64,0,0,1,.22.36c.22.36-.32.19-.31.46.64.08.63-.56,1.27-.57.23.44.24.72-.29,1-.32.37-.74.65-.84,1.1.12.36-.2.73-.73.75,0,.09.22.17.22.26a.15.15,0,0,1,0,.27c-.1.1-.21.1-.32-.08s.1-.18.1-.27v-.18c0-.09-.12-.18-.12-.27.32-.1.43-.28.52-.65s0-.72.41-.91c-.86-.07-1.18.12-1.27.93,0,.18-.2.37-.42.46a.5.5,0,0,0-.19.64c-.43.19-.64.56-.1.73-.53.1-.95.65-1.5.12a2.35,2.35,0,0,0-.75,0v.18C281.15,118.29,281.26,118.29,281.26,118.2Zm.37,1.89c0,.27-.21.19-.32.1a.35.35,0,0,1-.12-.18C281.3,119.92,281.52,120,281.63,120.09Zm-1-.7a.21.21,0,0,1-.32-.17c-.12-.36.31-.37.63-.65C281,119,281,119.29,280.64,119.39Zm-.41,1c-.22-.27-.22-.54.1-.73a.12.12,0,0,1,.21.09C280.66,120,280.44,120.12,280.23,120.4Zm-.37-2.17c.21-.09.43-.19.54-.1a.25.25,0,0,1,0,.36l-.53.65A.62.62,0,0,1,279.86,118.23Zm-1.5,4.83a4.24,4.24,0,0,0,.62-1.37,1.58,1.58,0,0,1,.42-.46.49.49,0,0,1,.32.08c0,.09,0,.09-.1.19a11.53,11.53,0,0,0-1,2c0,.18-.1.27-.32.19S278.26,123.25,278.36,123.06Zm-2.87,6c-.22-.17,0-.45.1-.63l.31-.28c.11-.1,0-.46.32-.28s.11.45,0,.63a.22.22,0,0,1-.21.19C275.92,128.91,275.71,129.28,275.49,129.1Zm1.31.69c-.1.28-.1.55-.52.65-.11,0-.22-.09-.12-.18.1-.36.31-.64.41-1a.41.41,0,0,1,.33.08C277,129.52,276.8,129.7,276.8,129.79Zm.3-.91c-.11,0-.32-.08-.33-.17-.11-.45.2-.64.52-.83C277.3,128.34,277.52,128.6,277.1,128.88Zm.45.9c-.11-.18,0-.27.1-.37.1-.27.42-.46.74-.74-.1.46-.09.82-.52,1C277.87,129.77,277.66,129.86,277.55,129.78Zm.35-3.54a.23.23,0,0,1,.32,0v.27l-.52.83C277.16,126.8,277.58,126.52,277.9,126.24Zm-.21,4.89a.68.68,0,0,1,.64-.2C278.34,131.3,278.12,131.21,277.69,131.13Zm.52-.65c.22.09.22.18.23.36l-.23-.36.32-.45C278.75,130.29,278.53,130.39,278.21,130.48Zm.63-5.17c-.2.55-.52.56-.85.2-.55-.34-.54,0-.64.2-.31.55-.51,1.1-.83,1.56,0,.09,0,.18-.21.18s-.11-.17-.11-.27a4.59,4.59,0,0,1,1.33-2.74.38.38,0,0,1,.43,0c.22.18,0,.27-.2.28l-.22.18c.66.53.77.53,1.08-.11l.31-.28A2.25,2.25,0,0,0,278.84,125.31Zm.09-.9-.11-.09c.21-.28.52-.65.63-.56C279.68,124.21,279.25,124.31,278.93,124.41Zm.4,3.42a10,10,0,0,0,.71-2.09c-.54,0-.42.55-.74.56-.22-.27-.23-.63-.13-.72.64-.47.4-1.28,1.14-1.84.42-.37.3-1,.51-1.37.1-.18-.11-.27-.22-.35-.55-.17-.55-.53-.35-.9.22-.1.21-.28.42-.37s.32-.28.43-.19.23.44.12.45a.33.33,0,0,0-.2.54c.11.18.32.09.53.08,0,.36.24.72.14,1.17-.21.19.55.35.87.35h-.11c.34.53-.1.45-.42.37s-.65-.08-.75.11.12.36.23.54.11.44-.21.54-.42.28-.75,0c-.11-.09-.11-.27-.32-.17s0,.27.11.36c.33.26.87.43.24.9-.11.18-.63.82-.4,1.36C280.29,127.27,279.87,127.64,279.33,127.83Zm23.33-9.5c0,.45-.52.56-.51.92h-.22s-.21-.08-.22-.17A.91.91,0,0,1,302.66,118.33Zm5.12-6.81h.32c.11,0,.32,0,.32-.1,0,.18-.21.1-.32.1a13.69,13.69,0,0,1-1.28.66C307,111.81,306.91,111.27,307.78,111.52Zm-2.71,3.86c.11,0,.11.09.22.18a.21.21,0,0,1-.21.18c-.11,0-.22,0-.22-.08S305.07,115.38,305.07,115.38Zm-4.09,9c.1-.18.21-.18.32,0v.28c0,.09,0,.18-.11.18s0-.09-.11-.09S300.77,124.53,301,124.34Zm-.05,2.45c-.54-.08-.66-.35-.55-.44.42-.47-.14-1.27.83-1.47C301.76,125.68,301,126.15,300.93,126.79Zm.9-2.83c-.22,0-.32-.08-.33-.17-.11-.27.1-.46.31-.55s.43.08.44.26S302,123.86,301.83,124Zm3.73-6.24c-.1.37-2.26,4.67-2.8,4.77-.21.1-.42.1-.64.2v-.09l.93-1.47a.33.33,0,0,0,.12.27c.21-.28.31-.37.2-.55-.11,0-.11.09-.21.09l1.76-2.75c.1-.28.2-.55.42-.64S305.66,117.63,305.56,117.72Zm.42-.37c-.22,0-.43,0-.55-.26s.42-.46.63-.56.22.09.22.18C306.4,117,306.29,117.16,306,117.35Zm.93-1.47v-.27l-.21.27h-.21a1.54,1.54,0,0,1,.61-1.28c.11-.18.32-.19.65-.2-.22.1-.32.37-.53.65a.18.18,0,0,0-.14.12,1.28,1.28,0,0,0,0-.39c-.32.19-.31.46-.41.73a1.21,1.21,0,0,0,.36-.29.34.34,0,0,0,0,.2c.11.17.32,0,.54.16A.71.71,0,0,1,306.91,115.88Zm.62-1a.93.93,0,0,0,.31-.46c0,.09.11.09.22.09A.53.53,0,0,1,307.53,114.87Zm.19-1.27c0-.18.21-.19.42-.1C308,113.68,307.94,113.77,307.72,113.6Zm.52-.74v-.27l.11-.09v-.18c0-.18.1-.28.42-.37l.22.17C309,112.48,308.77,112.67,308.24,112.86Zm8.67-1.65c-.11,0-.22-.08-.22-.17.1-.37.65,0,.75-.2C317.55,111.2,317.24,111.3,316.91,111.21Zm3.07-2.06c-.43.1-.74.38-1.28.3,0,.27.12.54-.31.64a.45.45,0,0,1-.33-.08c0-.36.21-.55.64-.56.42-.46.51-1.1,1.36-1.48C319.64,108.43,320.62,108.86,320,109.15Zm.29-1.27c-.22-.18,0-.46.21-.46s.65.35,1,.7C320.82,108.14,320.5,108.23,320.27,107.88Zm1.39-.67c-.22-.08-.65,0-.66-.26s.43-.1.86-.29C321.76,106.94,321.65,107,321.66,107.21Zm4.62-4.72c-.22.09-.22.09-.21.28a.23.23,0,0,0,.11.17c-1.08-.06-.95.84-1.26,1.3-.3.91-1.26,1.3-2,1.68a.57.57,0,0,0-.43.28c-.09.45-.09.45-.85.2.31-.37.84-.66,1.15-1.12a5.06,5.06,0,0,1,1.48-1.39c.42-.46,1.06-.75,1.36-1.3s1.06-.92,1.69-1.66A1.77,1.77,0,0,1,326.28,102.49Zm3.05-3.06c-.21.37-.74.56-.62,1.1-.11.28-.65,0-1,.12.31-.55.84-1,1.15-1.57,0-.27.31-.28.53-.1S329.43,99.25,329.33,99.43Zm1,14.72a10.22,10.22,0,0,1,2.39-3.22.85.85,0,0,0,.32-.1,30.51,30.51,0,0,1-2.28,3.59c-.1.09-.1.27-.32.18S330.21,114.34,330.32,114.15Zm-.11,4.53c.1,0,.11.09,0,.18s0,.09-.1.18C330,118.87,330,118.69,330.21,118.68Zm-1.94-.14c.21-.27.43-.1.64-.1-.11-.18-.44-.26-.12-.54,0-.09.21-.1.32.08.44.26.23.54,0,.73s.12.54-.2.63-.32,0-.43-.08C328.28,119,328.17,118.82,328.27,118.54Zm-2.52,7.12c-.11.09-.11.27-.21.55s0,.36-.21.27-.21-.17-.33-.44a2.51,2.51,0,0,1,.61-1.73C326.26,124.74,326.27,125.2,325.75,125.66Zm.06-1.9c0,.09.11.18.11.18h-.11c.11,0,0-.09,0-.18s0-.27.31-.46C326.23,123.57,326.24,123.75,325.81,123.76Zm.93-1.47a.81.81,0,0,1-.33-.26.58.58,0,0,1,.53-.38c.22,0,.32,0,.33.18S327.28,122.28,326.74,122.29Zm.62-1c0-.63.31-.64.74-.56A2.28,2.28,0,0,1,327.36,121.28Zm1.93-.5a.17.17,0,0,1-.22,0,1.67,1.67,0,0,0-.76-.44c-.22-.17-.33-.17-.33-.35,0-.36.31-.28.42-.28.75-.2.77.52,1.1.88C329.5,120.6,329.4,120.78,329.29,120.78ZM344.5,123c-.21,0-.22-.18-.32-.27s0-.27.1-.27,3.58-3,3.59-2.8S344.5,123,344.5,123Zm-3.4,1.44c-.22.09-.64.28-.76,0a.43.43,0,0,0-.75-.16c-.22,0-.32.19-.43,0s.1-.27.1-.36c1.47-1.12,2.63-2.33,3.9-3.35.63-.38,4.31-4,4.73-4.46.43-.28.41-.91,1.06-.83.11,0,.1-.19.1-.28s.1-.27.42-.28a.72.72,0,0,0,.46,0c0,.11-.08.23-.13.34-.13.3-.24.63-.35,1a6.14,6.14,0,0,0-.58.68A95.74,95.74,0,0,1,341.1,124.4Zm7.07-5.78c.21-.19.42-.46.52-.46l.25-.07c0,.17-.07.34-.1.51A1.23,1.23,0,0,1,348.17,118.62ZM387.6,98.7c0-.09-.11-.18-.32-.18s1.05-.83,1.05-.65S387.92,98.42,387.6,98.7Zm1.68-1.85c-.11-.09-.11-.09-.11-.27,0,0,0-.09.1-.09l.11.08A.39.39,0,0,1,389.28,96.85Z"></path><path class="cls-1" d="M121.34.52h5.55V31.33h-5.55V18.48H106V31.33h-5.55V.52H106V13.29h15.36Z"></path><path class="cls-1" d="M147.15.52h20.51V5.45h-15V13.2h14.66v4.93H152.69V26.4H168v4.93H147.15Z"></path><path class="cls-1" d="M186.91,31.33V.52h20V5.45H192.45v8.32h14.13V18.7H192.45V31.33Z"></path><path class="cls-1" d="M76.1,21a11.13,11.13,0,0,1-9.55,5.24c-6.06,0-11-4.65-11-10.37s4.94-10.37,11-10.37a11.1,11.1,0,0,1,9.63,5.37h5.45A15.94,15.94,0,0,0,66.55.56c-8.8,0-16,6.88-16,15.34s7.16,15.34,16,15.34A16,16,0,0,0,81.58,21Z"></path><path class="cls-2" d="M229.87,30.81V0h2.47V28.52h15.18v2.29Z"></path><path class="cls-2" d="M330.83,30.81,315,15.54V30.81h-2.46V0H315V15.05L330.43,0h3.35L318,15.23l16.2,15.58Z"></path><path class="cls-2" d="M353.47,30.81V0h18.92V2.29H355.93V14h16.15v2.29H355.93V28.52H372.7v2.29Z"></path><path class="cls-2" d="M290.28,17.91V0h-2.47V17.62h0v2.17c0,3.72-3.46,9.19-8,9.19h-3.48c-4.57,0-8.17-5.35-8.24-9.24l0-1.5V0h-2.46V17.76l0,2c0,5.35,4.89,11.53,10.76,11.53h3.48c5.88,0,10.56-6.77,10.56-11.63Z"></path></svg> 