<svg id="CLOSE" xmlns="http://www.w3.org/2000/svg" width="28.284" height="28.284" viewBox="0 0 28.284 28.284">
  <g id="Rectangle" transform="translate(-1350.858 -212.858)" fill="#fff">
    <path d="M 1377.727905273438 241.1419982910156 L 1350.857788085938 214.2720947265625 L 1352.272094726562 212.8578948974609 L 1379.142211914062 239.7279052734375 L 1377.727905273438 241.1419982910156 Z" stroke="none"/>
    <path d="M 1352.272094726562 212.8578948974609 L 1379.142211914062 239.7279052734375 L 1377.727905273438 241.1419982910156 L 1350.857788085938 214.2720947265625 L 1352.272094726562 212.8578948974609 Z M 1352.272094726562 212.8578948974609 L 1350.857788085938 214.2720947265625 L 1377.727905273438 241.1419982910156 L 1379.142211914062 239.7279052734375 L 1352.272094726562 212.8578948974609 Z" stroke="none" fill="#000"/>
  </g>
  <g id="Rectangle-2" data-name="Rectangle" transform="translate(-1350.858 -212.858)" fill="#fff">
    <path d="M 1352.272094726562 241.1419982910156 L 1350.857788085938 239.7279052734375 L 1377.727905273438 212.8578948974609 L 1379.142211914062 214.2720947265625 L 1352.272094726562 241.1419982910156 Z" stroke="none"/>
    <path d="M 1352.272094726562 241.1419982910156 L 1350.857788085938 239.7279052734375 L 1377.727905273438 212.8578948974609 L 1379.142211914062 214.2720947265625 L 1352.272094726562 241.1419982910156 Z M 1352.272094726562 241.1419982910156 L 1379.142211914062 214.2720947265625 L 1377.727905273438 212.8578948974609 L 1350.857788085938 239.7279052734375 L 1352.272094726562 241.1419982910156 Z" stroke="none" fill="#000"/>
  </g>
</svg>
