<svg id="Component_32_39" data-name="Component 32 – 39" xmlns="http://www.w3.org/2000/svg" width="26" height="33" viewBox="0 0 26 33">
  <g id="SHARE" transform="translate(-16.424 -13.972)">
    <path id="Path_5" data-name="Path 5" d="M37.42,36.778a4.936,4.936,0,0,0-3.338,1.3l-8.006-5.71a5.182,5.182,0,0,0,0-3.792l8.006-5.71a4.935,4.935,0,0,0,3.338,1.3,5.1,5.1,0,1,0-5.005-5.1,5.162,5.162,0,0,0,.359,1.9l-8.006,5.71a4.936,4.936,0,0,0-3.338-1.3,5.1,5.1,0,0,0,0,10.194,4.936,4.936,0,0,0,3.338-1.3l8.006,5.71a5.161,5.161,0,0,0-.359,1.9,5.006,5.006,0,1,0,5.005-5.1Z" fill="#fff"/>
  </g>
  <path id="Color_Overlay" data-name="Color Overlay" d="M171.99,1911.9a5.153,5.153,0,0,1,.359-1.9l-8.006-5.71a4.937,4.937,0,0,1-3.337,1.3,5.1,5.1,0,0,1,0-10.194,4.937,4.937,0,0,1,3.337,1.3l8.006-5.71a5.153,5.153,0,0,1-.359-1.9,5.006,5.006,0,1,1,5,5.1,4.941,4.941,0,0,1-3.338-1.3l-8.005,5.71a5.184,5.184,0,0,1,0,3.792l8.005,5.71a4.941,4.941,0,0,1,3.338-1.3,5.1,5.1,0,1,1-5,5.1Z" transform="translate(-156 -1884)" fill="#fff"/>
</svg>
